<svg width="37" height="37" viewBox="0 0 48 42" fill="none" xmlns="http://www.w3.org/2000/svg">
<g filter="url(#filter0_d_902_165)">
<path fill-rule="evenodd" clip-rule="evenodd" d="M8.79067 25.7143H7.63638C5.62806 25.7143 4 24.4534 4 22.898V16.702C4 15.4088 5.12552 14.3191 6.6593 13.9886C7.3706 9.45835 11.1681 6 15.746 6H32.254C36.8319 6 40.6295 9.45835 41.3407 13.9886C42.8745 14.3191 44 15.4088 44 16.702V22.898C44 24.4534 42.3719 25.7143 40.3636 25.7143H39.2094C37.5214 27.7271 35.0313 29 32.254 29H15.746C12.9687 29 10.4786 27.7271 8.79067 25.7143Z" fill="#133053"/>
<path fill-rule="evenodd" clip-rule="evenodd" d="M16.5411 8.90466C12.0695 8.90466 8.44446 12.5977 8.44446 17.1534V23.3398C8.44446 25.9013 9.59043 28.1901 11.3886 29.703L15.9906 34.7056C16.4781 35.2356 17.1706 34.7925 17.1107 33.9888L16.9319 31.5885H31.4589C35.9306 31.5885 39.5556 27.8955 39.5556 23.3398V17.1534C39.5556 12.5977 35.9306 8.90466 31.4589 8.90466H16.5411Z" fill="#EFF6FF"/>
<path d="M19.6702 15.9246C21.8081 18.2107 21.9267 21.8957 19.9348 24.1553C17.9429 26.4149 14.5949 26.3934 12.4569 24.1072C10.3188 21.8211 10.2003 18.1361 12.1922 15.8765C14.1842 13.617 17.5321 13.6384 19.6702 15.9246Z" fill="white"/>
<path d="M35.5432 15.9246C37.6812 18.2107 37.7997 21.8957 35.8078 24.1553C33.8159 26.4149 30.468 26.3934 28.3299 24.1072C26.1918 21.8211 26.0733 18.1361 28.0653 15.8765C30.0572 13.617 33.4051 13.6384 35.5432 15.9246Z" fill="white"/>
<path d="M20.5303 17.4734C22.1122 19.009 22.1998 21.4842 20.7261 23.002C19.2523 24.5198 16.7753 24.5053 15.1934 22.9697C13.6115 21.4341 13.5238 18.9589 14.9976 17.4411C16.4713 15.9234 18.9484 15.9378 20.5303 17.4734Z" fill="#133053"/>
<path d="M30.0849 18.9412C30.8584 16.8768 33.0915 15.8052 35.0725 16.5477C37.0534 17.2903 38.0323 19.5658 37.2588 21.6302C36.4852 23.6946 34.2522 24.7662 32.2711 24.0237C30.2902 23.2811 29.3114 21.0056 30.0849 18.9412Z" fill="#133053"/>
<path fill-rule="evenodd" clip-rule="evenodd" d="M13.947 15.6197C11.4084 16.7244 10.2347 19.7192 11.3685 22.3259C12.5024 24.9326 15.4932 26.1152 18.0318 25.0106C20.5705 23.906 21.7442 20.9112 20.6104 18.3045C19.4765 15.6978 16.4856 14.5151 13.947 15.6197ZM13.4598 14.4996C10.2891 15.8792 8.85138 19.6014 10.2485 22.8133C11.6457 26.0251 15.3485 27.5105 18.5191 26.1309C20.9263 25.0834 22.3347 22.6856 22.2619 20.1862C22.3137 20.1758 22.3645 20.155 22.4109 20.1235C22.8471 19.8268 23.3639 19.6606 23.9151 19.6709C24.6047 19.6837 25.232 19.9709 25.7067 20.4405C25.7303 20.4637 25.756 20.4836 25.7831 20.4999C25.8125 21.2745 25.9842 22.058 26.3127 22.8133C27.7099 26.0251 31.4127 27.5105 34.5833 26.1309C37.754 24.7512 39.1917 21.029 37.7946 17.8171C36.3974 14.6053 32.6946 13.1199 29.524 14.4996C27.4283 15.4115 26.0896 17.3468 25.8263 19.4817C25.2845 19.0996 24.6342 18.8698 23.9303 18.8566C23.2946 18.8448 22.6953 19.0112 22.1754 19.3106C22.0902 18.8076 21.9432 18.3065 21.7304 17.8171C20.3332 14.6053 16.6304 13.1199 13.4598 14.4996ZM30.0113 15.6197C27.4726 16.7244 26.2989 19.7192 27.4328 22.3259C28.5666 24.9326 31.5575 26.1152 34.0961 25.0106C36.6347 23.906 37.8084 20.9112 36.6746 18.3045C35.5407 15.6978 32.5499 14.5151 30.0113 15.6197Z" fill="#133053"/>
<path d="M22 27.2514C22.4745 27.5932 23.0458 27.7949 23.662 27.8001C24.4338 27.8065 25.1406 27.5036 25.678 27" stroke="#133053" stroke-width="0.7" stroke-linecap="round"/>
<path d="M33.4068 18.3486C33.3697 18.7712 32.9738 19.1101 32.5225 19.1056C32.0713 19.1011 31.7356 18.7549 31.7728 18.3324C31.8099 17.9098 32.2059 17.5709 32.6571 17.5754C33.1084 17.5799 33.444 17.9261 33.4068 18.3486Z" fill="white"/>
<path d="M18.2466 18.2593C18.2095 18.6819 17.8135 19.0208 17.3623 19.0163C16.9111 19.0118 16.5754 18.6656 16.6126 18.2431C16.6497 17.8205 17.0457 17.4816 17.4969 17.4861C17.9481 17.4906 18.2838 17.8368 18.2466 18.2593Z" fill="white"/>
</g>
<defs>
<filter id="filter0_d_902_165" x="0" y="5" width="48" height="36.9364" filterUnits="userSpaceOnUse" color-interpolation-filters="sRGB">
<feFlood flood-opacity="0" result="BackgroundImageFix"/>
<feColorMatrix in="SourceAlpha" type="matrix" values="0 0 0 0 0 0 0 0 0 0 0 0 0 0 0 0 0 0 127 0" result="hardAlpha"/>
<feOffset dy="3"/>
<feGaussianBlur stdDeviation="2"/>
<feComposite in2="hardAlpha" operator="out"/>
<feColorMatrix type="matrix" values="0 0 0 0 0 0 0 0 0 0 0 0 0 0 0 0 0 0 0.3 0"/>
<feBlend mode="normal" in2="BackgroundImageFix" result="effect1_dropShadow_902_165"/>
<feBlend mode="normal" in="SourceGraphic" in2="effect1_dropShadow_902_165" result="shape"/>
</filter>
</defs>
</svg>
