<?xml version="1.0" encoding="UTF-8"?>
<svg version="1.1" xmlns="http://www.w3.org/2000/svg" width="256" height="256">
<path d="M0 0 C84.48 0 168.96 0 256 0 C256 84.48 256 168.96 256 256 C171.52 256 87.04 256 0 256 C0 171.52 0 87.04 0 0 Z " fill="#1D4223" transform="translate(0,0)"/>
<path d="M0 0 C7.59 0 15.18 0 23 0 C23 0.66 23 1.32 23 2 C24.65 2.33 26.3 2.66 28 3 C28 3.99 28 4.98 28 6 C28.99 6 29.98 6 31 6 C31 6.66 31 7.32 31 8 C31.99 8 32.98 8 34 8 C34 8.99 34 9.98 34 11 C34.99 11 35.98 11 37 11 C37 12.98 37 14.96 37 17 C39.97 17 42.94 17 46 17 C46 16.34 46 15.68 46 15 C48.71401294 13.64299353 50.84846316 13.8876139 53.8828125 13.90234375 C55.04941406 13.90556641 56.21601563 13.90878906 57.41796875 13.91210938 C58.64128906 13.92048828 59.86460937 13.92886719 61.125 13.9375 C62.35605469 13.94201172 63.58710938 13.94652344 64.85546875 13.95117188 C67.90369392 13.9629867 70.95182314 13.97945972 74 14 C74 13.01 74 12.02 74 11 C76.64 11 79.28 11 82 11 C82 10.34 82 9.68 82 9 C82.99 9 83.98 9 85 9 C85.33 10.65 85.66 12.3 86 14 C86.66 14 87.32 14 88 14 C88 16.97 88 19.94 88 23 C88.99 23 89.98 23 91 23 C91 23.66 91 24.32 91 25 C91.99 25 92.98 25 94 25 C94 25.99 94 26.98 94 28 C95.65 28.33 97.3 28.66 99 29 C99 29.66 99 30.32 99 31 C101.97 31 104.94 31 108 31 C108 30.01 108 29.02 108 28 C109.98 28 111.96 28 114 28 C114 27.34 114 26.68 114 26 C118.62 26 123.24 26 128 26 C128 26.66 128 27.32 128 28 C129.98 28 131.96 28 134 28 C134 28.99 134 29.98 134 31 C134.66 31 135.32 31 136 31 C136 31.99 136 32.98 136 34 C136.99 34 137.98 34 139 34 C139 34.99 139 35.98 139 37 C139.99 37 140.98 37 142 37 C142 37.99 142 38.98 142 40 C142.99 40 143.98 40 145 40 C145 48.25 145 56.5 145 65 C144.01 65 143.02 65 142 65 C142 66.98 142 68.96 142 71 C141.01 71 140.02 71 139 71 C139 71.99 139 72.98 139 74 C138.01 74 137.02 74 136 74 C136 74.99 136 75.98 136 77 C134.35 77 132.7 77 131 77 C131 77.66 131 78.32 131 79 C128.29283758 79.90238747 126.76223232 80.11851302 123.98828125 80.09765625 C122.85229492 80.09282227 122.85229492 80.09282227 121.69335938 80.08789062 C120.51483398 80.07532227 120.51483398 80.07532227 119.3125 80.0625 C118.51521484 80.05798828 117.71792969 80.05347656 116.89648438 80.04882812 C114.93095743 80.0370585 112.96546915 80.01912348 111 80 C111 80.66 111 81.32 111 82 C110.01 82 109.02 82 108 82 C108 84.97 108 87.94 108 91 C107.01 91 106.02 91 105 91 C105 91.99 105 92.98 105 94 C104.01 94 103.02 94 102 94 C102 94.99 102 95.98 102 97 C101.01 97 100.02 97 99 97 C99 97.66 99 98.32 99 99 C98.34 99 97.68 99 97 99 C97 99.99 97 100.98 97 102 C96.01 102 95.02 102 94 102 C94 104.97 94 107.94 94 111 C94.99 111 95.98 111 97 111 C97 111.99 97 112.98 97 114 C97.99 114 98.98 114 100 114 C100 114.66 100 115.32 100 116 C100.66 116 101.32 116 102 116 C102 117.98 102 119.96 102 122 C102.99 122 103.98 122 105 122 C105 122.99 105 123.98 105 125 C105.99 125 106.98 125 108 125 C108 126.98 108 128.96 108 131 C108.99 131 109.98 131 111 131 C111 133.64 111 136.28 111 139 C111.66 139 112.32 139 113 139 C114.21077701 142.63233102 114.12444164 145.95121987 114.09765625 149.73046875 C114.09553383 150.85609978 114.09553383 150.85609978 114.09336853 152.00447083 C114.0877756 154.3988546 114.07522444 156.79314453 114.0625 159.1875 C114.05748408 160.81184761 114.05292134 162.43619668 114.04882812 164.06054688 C114.03780848 168.04040069 114.02054873 172.02018444 114 176 C113.01 176 112.02 176 111 176 C111 176.99 111 177.98 111 179 C110.01 179 109.02 179 108 179 C108 180.98 108 182.96 108 185 C107.01 185 106.02 185 105 185 C105 186.65 105 188.3 105 190 C104.01 190 103.02 190 102 190 C102 184.39 102 178.78 102 173 C102.99 173 103.98 173 105 173 C105 171.35 105 169.7 105 168 C105.99 168 106.98 168 108 168 C108 160.41 108 152.82 108 145 C107.01 145 106.02 145 105 145 C105 143.02 105 141.04 105 139 C104.01 139 103.02 139 102 139 C102 136.36 102 133.72 102 131 C101.01 131 100.02 131 99 131 C99 129.02 99 127.04 99 125 C98.34 125 97.68 125 97 125 C97 124.01 97 123.02 97 122 C96.01 122 95.02 122 94 122 C94 120.35 94 118.7 94 117 C93.01 117 92.02 117 91 117 C91 116.01 91 115.02 91 114 C90.01 114 89.02 114 88 114 C88 113.01 88 112.02 88 111 C87.01 111 86.02 111 85 111 C85 110.01 85 109.02 85 108 C79.39 108 73.78 108 68 108 C68 107.01 68 106.02 68 105 C69.98 105 71.96 105 74 105 C74 104.34 74 103.68 74 103 C76.64 102.67 79.28 102.34 82 102 C82 101.01 82 100.02 82 99 C83.98 99 85.96 99 88 99 C88 98.34 88 97.68 88 97 C89.98 97 91.96 97 94 97 C94 96.01 94 95.02 94 94 C94.99 94 95.98 94 97 94 C97 93.01 97 92.02 97 91 C97.99 91 98.98 91 100 91 C100 89.02 100 87.04 100 85 C100.99 85 101.98 85 103 85 C103 84.01 103 83.02 103 82 C103.66 82 104.32 82 105 82 C105 71.77 105 61.54 105 51 C104.01 51 103.02 51 102 51 C102 48.36 102 45.72 102 43 C101.01 43 100.02 43 99 43 C99 42.01 99 41.02 99 40 C98.34 40 97.68 40 97 40 C97 39.01 97 38.02 97 37 C96.01 37 95.02 37 94 37 C94 36.01 94 35.02 94 34 C93.01 34 92.02 34 91 34 C91 33.01 91 32.02 91 31 C89.02 31 87.04 31 85 31 C85 30.34 85 29.68 85 29 C81.37 29 77.74 29 74 29 C74 28.01 74 27.02 74 26 C74.99 26 75.98 26 77 26 C77 25.01 77 24.02 77 23 C77.66 23 78.32 23 79 23 C79 22.01 79 21.02 79 20 C68.11 20 57.22 20 46 20 C46 20.99 46 21.98 46 23 C42.04 23 38.08 23 34 23 C34 23.66 34 24.32 34 25 C33.01 25 32.02 25 31 25 C31 26.32 31 27.64 31 29 C30.34 29 29.68 29 29 29 C29 29.66 29 30.32 29 31 C28.01 31 27.02 31 26 31 C26 31.99 26 32.98 26 34 C24.02 34 22.04 34 20 34 C20 34.99 20 35.98 20 37 C19.01 37 18.02 37 17 37 C17 37.99 17 38.98 17 40 C16.01 40 15.02 40 14 40 C14 41.65 14 43.3 14 45 C13.01 45 12.02 45 11 45 C11 46.98 11 48.96 11 51 C10.01 51 9.02 51 8 51 C8 53.97 8 56.94 8 60 C7.34 60 6.68 60 6 60 C6 63.63 6 67.26 6 71 C6.66 71 7.32 71 8 71 C8.33 72.98 8.66 74.96 9 77 C9.66 77 10.32 77 11 77 C11 78.65 11 80.3 11 82 C11.99 82 12.98 82 14 82 C14 82.99 14 83.98 14 85 C14.99 85 15.98 85 17 85 C17 86.98 17 88.96 17 91 C17.99 91 18.98 91 20 91 C20 101.23 20 111.46 20 122 C20.99 122 21.98 122 23 122 C23 116.39 23 110.78 23 105 C23.66 105 24.32 105 25 105 C25 103.02 25 101.04 25 99 C26.98 99 28.96 99 31 99 C31 98.34 31 97.68 31 97 C33.97 97 36.94 97 40 97 C40 97.66 40 98.32 40 99 C41.98 99 43.96 99 46 99 C46 104.94 46 110.88 46 117 C48.64 117 51.28 117 54 117 C54 117.66 54 118.32 54 119 C61.59 119 69.18 119 77 119 C77 119.99 77 120.98 77 122 C75.02 122 73.04 122 71 122 C71 122.99 71 123.98 71 125 C60.77 125 50.54 125 40 125 C40 125.99 40 126.98 40 128 C39.01 128 38.02 128 37 128 C37 130.64 37 133.28 37 136 C37.99 136 38.98 136 40 136 C40 136.99 40 137.98 40 139 C40.99 139 41.98 139 43 139 C43 139.99 43 140.98 43 142 C44.65 142 46.3 142 48 142 C48 142.99 48 143.98 48 145 C51.96 145 55.92 145 60 145 C60 145.99 60 146.98 60 148 C60.99 148 61.98 148 63 148 C63 148.66 63 149.32 63 150 C59.04 150 55.08 150 51 150 C51 151.98 51 153.96 51 156 C51.99 156 52.98 156 54 156 C54 156.99 54 157.98 54 159 C54.99 159 55.98 159 57 159 C57 160.98 57 162.96 57 165 C57.99 165 58.98 165 60 165 C60 165.99 60 166.98 60 168 C64.62 168 69.24 168 74 168 C74 165.03 74 162.06 74 159 C74.99 159 75.98 159 77 159 C77 157.02 77 155.04 77 153 C77.66 153 78.32 153 79 153 C79.33 152.01 79.66 151.02 80 150 C80.66 150 81.32 150 82 150 C82 149.34 82 148.68 82 148 C82.99 148 83.98 148 85 148 C85 147.01 85 146.02 85 145 C87.97 145 90.94 145 94 145 C94 145.99 94 146.98 94 148 C94.99 148 95.98 148 97 148 C97 148.99 97 149.98 97 151 C95.02 151 93.04 151 91 151 C91 151.66 91 152.32 91 153 C89.02 153 87.04 153 85 153 C85 154.32 85 155.64 85 157 C84.34 157 83.68 157 83 157 C83.0309375 158.8871875 83.0309375 158.8871875 83.0625 160.8125 C83.10886083 163.64051087 82.91692961 165.24921116 82 168 C81.34 168 80.68 168 80 168 C80 171.63 80 175.26 80 179 C78.02 179 76.04 179 74 179 C74 178.01 74 177.02 74 176 C73.01 176 72.02 176 71 176 C71 175.01 71 174.02 71 173 C68.03 173 65.06 173 62 173 C62 173.99 62 174.98 62 176 C62.99 176 63.98 176 65 176 C65 177.98 65 179.96 65 182 C65.99 182 66.98 182 68 182 C68 182.99 68 183.98 68 185 C68.99 185 69.98 185 71 185 C71 190.61 71 196.22 71 202 C71.99 202 72.98 202 74 202 C74 200.02 74 198.04 74 196 C74.99 196 75.98 196 77 196 C77 194.35 77 192.7 77 191 C77.66 190.67 78.32 190.34 79 190 C79.33 189.01 79.66 188.02 80 187 C80.66 187 81.32 187 82 187 C82 186.34 82 185.68 82 185 C82.99 185 83.98 185 85 185 C85 184.01 85 183.02 85 182 C86.98 182 88.96 182 91 182 C91 181.01 91 180.02 91 179 C92.98 179 94.96 179 97 179 C97 185.6 97 192.2 97 199 C96.01 199 95.02 199 94 199 C94 200.98 94 202.96 94 205 C93.01 205 92.02 205 91 205 C91 205.66 91 206.32 91 207 C89.02 207.33 87.04 207.66 85 208 C85 208.66 85 209.32 85 210 C84.34 210 83.68 210 83 210 C83 210.99 83 211.98 83 213 C83.66 213 84.32 213 85 213 C85 214.98 85 216.96 85 219 C85.99 219 86.98 219 88 219 C88 220.98 88 222.96 88 225 C88.99 225 89.98 225 91 225 C91 226.65 91 228.3 91 230 C90.01 230 89.02 230 88 230 C88 230.99 88 231.98 88 233 C79.42 233 70.84 233 62 233 C62 231.35 62 229.7 62 228 C61.34 228 60.68 228 60 228 C60 226.02 60 224.04 60 222 C59.01 222 58.02 222 57 222 C57 220.02 57 218.04 57 216 C56.01 216 55.02 216 54 216 C54 215.01 54 214.02 54 213 C53.01 213 52.02 213 51 213 C51 212.34 51 211.68 51 211 C50.34 211 49.68 211 49 211 C49 211.66 49 212.32 49 213 C47.68 213 46.36 213 45 213 C45 213.99 45 214.98 45 216 C44.34 216 43.68 216 43 216 C43 216.99 43 217.98 43 219 C40.03 219 37.06 219 34 219 C34 219.99 34 220.98 34 222 C27.4 222 20.8 222 14 222 C14 221.01 14 220.02 14 219 C11.36 219 8.72 219 6 219 C6 218.01 6 217.02 6 216 C5.01 216 4.02 216 3 216 C3 215.01 3 214.02 3 213 C1.02 213 -0.96 213 -3 213 C-3 212.01 -3 211.02 -3 210 C-3.99 210 -4.98 210 -6 210 C-6 209.34 -6 208.68 -6 208 C-7.65 208 -9.3 208 -11 208 C-11 207.01 -11 206.02 -11 205 C-11.99 205 -12.98 205 -14 205 C-14 204.01 -14 203.02 -14 202 C-14.99 202 -15.98 202 -17 202 C-17 200.02 -17 198.04 -17 196 C-17.99 196 -18.98 196 -20 196 C-20 195.01 -20 194.02 -20 193 C-20.99 193 -21.98 193 -23 193 C-23 191.35 -23 189.7 -23 188 C-23.66 188 -24.32 188 -25 188 C-25.33 186.02 -25.66 184.04 -26 182 C-26.99 182 -27.98 182 -29 182 C-29 181.01 -29 180.02 -29 179 C-29.66 179 -30.32 179 -31 179 C-31 176.36 -31 173.72 -31 171 C-31.99 171 -32.98 171 -34 171 C-34 161.43 -34 151.86 -34 142 C-33.01 142 -32.02 142 -31 142 C-31 140.02 -31 138.04 -31 136 C-30.34 136 -29.68 136 -29 136 C-28.67 134.35 -28.34 132.7 -28 131 C-27.34 131 -26.68 131 -26 131 C-26 129.02 -26 127.04 -26 125 C-26.66 125 -27.32 125 -28 125 C-28 124.01 -28 123.02 -28 122 C-28.99 122 -29.98 122 -31 122 C-31 121.01 -31 120.02 -31 119 C-31.99 119 -32.98 119 -34 119 C-34 116.36 -34 113.72 -34 111 C-34.99 111 -35.98 111 -37 111 C-37 109.02 -37 107.04 -37 105 C-37.99 105 -38.98 105 -40 105 C-40 102.36 -40 99.72 -40 97 C-40.66 97 -41.32 97 -42 97 C-42 90.4 -42 83.8 -42 77 C-41.34 77 -40.68 77 -40 77 C-40 74.03 -40 71.06 -40 68 C-39.01 68 -38.02 68 -37 68 C-37 65.36 -37 62.72 -37 60 C-36.01 60 -35.02 60 -34 60 C-34 56.04 -34 52.08 -34 48 C-34.99 48 -35.98 48 -37 48 C-37 46.02 -37 44.04 -37 42 C-37.66 42 -38.32 42 -39 42 C-39.33 40.35 -39.66 38.7 -40 37 C-40.66 37 -41.32 37 -42 37 C-42 36.01 -42 35.02 -42 34 C-42.99 34 -43.98 34 -45 34 C-45 30.04 -45 26.08 -45 22 C-44.34 22 -43.68 22 -43 22 C-43 21.34 -43 20.68 -43 20 C-42.01 20 -41.02 20 -40 20 C-40 19.01 -40 18.02 -40 17 C-34.39 17 -28.78 17 -23 17 C-23 24.59 -23 32.18 -23 40 C-22.01 40 -21.02 40 -20 40 C-20 40.99 -20 41.98 -20 43 C-19.01 43 -18.02 43 -17 43 C-17 43.99 -17 44.98 -17 46 C-16.01 46 -15.02 46 -14 46 C-14 46.66 -14 47.32 -14 48 C-12.35 48 -10.7 48 -9 48 C-9 47.34 -9 46.68 -9 46 C-9.66 46 -10.32 46 -11 46 C-11 44.68 -11 43.36 -11 42 C-11.99 42 -12.98 42 -14 42 C-14 41.34 -14 40.68 -14 40 C-14.99 40 -15.98 40 -17 40 C-17 32.41 -17 24.82 -17 17 C-16.01 17 -15.02 17 -14 17 C-14 15.02 -14 13.04 -14 11 C-13.01 11 -12.02 11 -11 11 C-11 10.01 -11 9.02 -11 8 C-10.01 8 -9.02 8 -8 8 C-8 7.34 -8 6.68 -8 6 C-6.35 6 -4.7 6 -3 6 C-3 5.01 -3 4.02 -3 3 C-2.01 3 -1.02 3 0 3 C0 2.01 0 1.02 0 0 Z " fill="#FAFBFA" transform="translate(91,20)"/>
<path d="M0 0 C10.89 0 21.78 0 33 0 C33 0.99 33 1.98 33 3 C32.34 3 31.68 3 31 3 C31 3.99 31 4.98 31 6 C30.01 6 29.02 6 28 6 C28 6.99 28 7.98 28 9 C31.63 9 35.26 9 39 9 C39 9.66 39 10.32 39 11 C40.98 11 42.96 11 45 11 C45 11.99 45 12.98 45 14 C45.99 14 46.98 14 48 14 C48 14.99 48 15.98 48 17 C48.99 17 49.98 17 51 17 C51 17.99 51 18.98 51 20 C51.66 20 52.32 20 53 20 C53 20.99 53 21.98 53 23 C53.99 23 54.98 23 56 23 C56 25.64 56 28.28 56 31 C56.99 31 57.98 31 59 31 C59 41.23 59 51.46 59 62 C58.34 62 57.68 62 57 62 C57 62.99 57 63.98 57 65 C56.01 65 55.02 65 54 65 C54 66.98 54 68.96 54 71 C53.01 71 52.02 71 51 71 C51 71.99 51 72.98 51 74 C50.01 74 49.02 74 48 74 C48 74.99 48 75.98 48 77 C46.02 77 44.04 77 42 77 C42 77.66 42 78.32 42 79 C40.02 79 38.04 79 36 79 C36 79.99 36 80.98 36 82 C33.36 82.33 30.72 82.66 28 83 C28 83.66 28 84.32 28 85 C26.02 85 24.04 85 22 85 C22 85.99 22 86.98 22 88 C27.61 88 33.22 88 39 88 C39 88.99 39 89.98 39 91 C39.99 91 40.98 91 42 91 C42 91.99 42 92.98 42 94 C42.99 94 43.98 94 45 94 C45 94.99 45 95.98 45 97 C45.99 97 46.98 97 48 97 C48 98.65 48 100.3 48 102 C48.99 102 49.98 102 51 102 C51 102.99 51 103.98 51 105 C51.66 105 52.32 105 53 105 C53 106.98 53 108.96 53 111 C53.99 111 54.98 111 56 111 C56 113.64 56 116.28 56 119 C56.99 119 57.98 119 59 119 C59 120.98 59 122.96 59 125 C59.99 125 60.98 125 62 125 C62 132.59 62 140.18 62 148 C61.01 148 60.02 148 59 148 C59 149.65 59 151.3 59 153 C58.01 153 57.02 153 56 153 C56 158.61 56 164.22 56 170 C56.99 170.33 57.98 170.66 59 171 C57.35 171 55.7 171 54 171 C54 171.66 54 172.32 54 173 C53.01 173 52.02 173 51 173 C51 168.38 51 163.76 51 159 C49.02 159 47.04 159 45 159 C45 159.99 45 160.98 45 162 C43.02 162 41.04 162 39 162 C39 162.99 39 163.98 39 165 C38.01 165 37.02 165 36 165 C36 165.66 36 166.32 36 167 C35.34 167 34.68 167 34 167 C33.67 168.32 33.34 169.64 33 171 C32.34 171 31.68 171 31 171 C31 172.65 31 174.3 31 176 C30.01 176 29.02 176 28 176 C28 177.98 28 179.96 28 182 C27.01 182 26.02 182 25 182 C25 176.39 25 170.78 25 165 C24.01 165 23.02 165 22 165 C22 164.01 22 163.02 22 162 C21.01 162 20.02 162 19 162 C19 160.02 19 158.04 19 156 C18.01 156 17.02 156 16 156 C16 155.01 16 154.02 16 153 C18.97 153 21.94 153 25 153 C25 153.99 25 154.98 25 156 C25.99 156 26.98 156 28 156 C28 156.99 28 157.98 28 159 C29.98 159 31.96 159 34 159 C34 155.37 34 151.74 34 148 C34.66 148 35.32 148 36 148 C36.33 144.37 36.66 140.74 37 137 C37.66 137 38.32 137 39 137 C39 135.68 39 134.36 39 133 C40.98 133 42.96 133 45 133 C45 132.34 45 131.68 45 131 C46.98 131 48.96 131 51 131 C51 130.01 51 129.02 51 128 C50.01 128 49.02 128 48 128 C48 127.01 48 126.02 48 125 C45.03 125 42.06 125 39 125 C39 125.99 39 126.98 39 128 C38.01 128 37.02 128 36 128 C36 128.66 36 129.32 36 130 C34.625 131.625 34.625 131.625 33 133 C32.34 133 31.68 133 31 133 C31 134.98 31 136.96 31 139 C30.01 139 29.02 139 28 139 C28 141.97 28 144.94 28 148 C23.38 148 18.76 148 14 148 C14 147.01 14 146.02 14 145 C13.01 145 12.02 145 11 145 C11 143.02 11 141.04 11 139 C10.01 139 9.02 139 8 139 C8 138.01 8 137.02 8 136 C7.01 136 6.02 136 5 136 C5 134.02 5 132.04 5 130 C8.96 130 12.92 130 17 130 C17 129.34 17 128.68 17 128 C16.01 128 15.02 128 14 128 C14 127.01 14 126.02 14 125 C10.04 125 6.08 125 2 125 C2 124.01 2 123.02 2 122 C0.35 122 -1.3 122 -3 122 C-3 121.01 -3 120.02 -3 119 C-3.99 119 -4.98 119 -6 119 C-6 118.01 -6 117.02 -6 116 C-6.99 116 -7.98 116 -9 116 C-9 113.36 -9 110.72 -9 108 C-8.01 108 -7.02 108 -6 108 C-6 107.01 -6 106.02 -6 105 C4.23 105 14.46 105 25 105 C25 104.01 25 103.02 25 102 C26.98 102 28.96 102 31 102 C31 101.01 31 100.02 31 99 C23.41 99 15.82 99 8 99 C8 98.34 8 97.68 8 97 C5.36 97 2.72 97 0 97 C0 91.06 0 85.12 0 79 C-1.98 79 -3.96 79 -6 79 C-6 78.34 -6 77.68 -6 77 C-8.97 77 -11.94 77 -15 77 C-15 77.66 -15 78.32 -15 79 C-16.98 79 -18.96 79 -21 79 C-21 80.98 -21 82.96 -21 85 C-21.66 85 -22.32 85 -23 85 C-23 90.61 -23 96.22 -23 102 C-23.99 102 -24.98 102 -26 102 C-26 91.77 -26 81.54 -26 71 C-26.99 71 -27.98 71 -29 71 C-29 69.02 -29 67.04 -29 65 C-29.99 65 -30.98 65 -32 65 C-32 64.01 -32 63.02 -32 62 C-32.99 62 -33.98 62 -35 62 C-35 60.35 -35 58.7 -35 57 C-35.66 57 -36.32 57 -37 57 C-37.33 55.02 -37.66 53.04 -38 51 C-38.66 51 -39.32 51 -40 51 C-40 47.37 -40 43.74 -40 40 C-39.34 40 -38.68 40 -38 40 C-38 37.03 -38 34.06 -38 31 C-37.01 31 -36.02 31 -35 31 C-35 29.02 -35 27.04 -35 25 C-34.01 25 -33.02 25 -32 25 C-32 23.35 -32 21.7 -32 20 C-31.01 20 -30.02 20 -29 20 C-29 19.01 -29 18.02 -29 17 C-28.01 17 -27.02 17 -26 17 C-26 16.01 -26 15.02 -26 14 C-24.02 14 -22.04 14 -20 14 C-20 13.01 -20 12.02 -20 11 C-19.01 11 -18.02 11 -17 11 C-17 10.34 -17 9.68 -17 9 C-16.34 9 -15.68 9 -15 9 C-15 7.68 -15 6.36 -15 5 C-14.01 5 -13.02 5 -12 5 C-12 4.34 -12 3.68 -12 3 C-8.04 3 -4.08 3 0 3 C0 2.01 0 1.02 0 0 Z " fill="#204526" transform="translate(137,40)"/>
<path d="M0 0 C1.65 0 3.3 0 5 0 C5 0.66 5 1.32 5 2 C5.99 2 6.98 2 8 2 C8 2.99 8 3.98 8 5 C8.99 5 9.98 5 11 5 C11 11.6 11 18.2 11 25 C10.01 25 9.02 25 8 25 C8 27.97 8 30.94 8 34 C9.98 34 11.96 34 14 34 C14 34.99 14 35.98 14 37 C14.66 37 15.32 37 16 37 C16 38.65 16 40.3 16 42 C16.99 42 17.98 42 19 42 C19 43.98 19 45.96 19 48 C19.99 48 20.98 48 22 48 C22 48.99 22 49.98 22 51 C22.99 51 23.98 51 25 51 C25 52.98 25 54.96 25 57 C25.99 57 26.98 57 28 57 C28 58.65 28 60.3 28 62 C28.99 62 29.98 62 31 62 C31 63.98 31 65.96 31 68 C31.66 68 32.32 68 33 68 C33.33 69.98 33.66 71.96 34 74 C34.66 74 35.32 74 36 74 C36 75.65 36 77.3 36 79 C36.99 79 37.98 79 39 79 C39 80.98 39 82.96 39 85 C39.99 85 40.98 85 42 85 C42 85.99 42 86.98 42 88 C42.99 88 43.98 88 45 88 C45 89.98 45 91.96 45 94 C45.99 94 46.98 94 48 94 C48 95.65 48 97.3 48 99 C48.99 99 49.98 99 51 99 C51 100.98 51 102.96 51 105 C50.01 105 49.02 105 48 105 C48 104.01 48 103.02 48 102 C47.01 102 46.02 102 45 102 C45 101.01 45 100.02 45 99 C38.4 99 31.8 99 25 99 C25 99.99 25 100.98 25 102 C24.01 102 23.02 102 22 102 C22 102.99 22 103.98 22 105 C21.01 105 20.02 105 19 105 C19 105.99 19 106.98 19 108 C18.34 108 17.68 108 17 108 C17 109.65 17 111.3 17 113 C17.66 113 18.32 113 19 113 C19 112.01 19 111.02 19 110 C19.99 110 20.98 110 22 110 C22 109.34 22 108.68 22 108 C29.59 108 37.18 108 45 108 C45 108.99 45 109.98 45 111 C45.99 111 46.98 111 48 111 C48 112.65 48 114.3 48 116 C48.66 116 49.32 116 50 116 C50.495 120.455 50.495 120.455 51 125 C51.99 125 52.98 125 54 125 C54 126.65 54 128.3 54 130 C55.65 130 57.3 130 59 130 C59 128.35 59 126.7 59 125 C59.99 125 60.98 125 62 125 C62 124.01 62 123.02 62 122 C62.99 122 63.98 122 65 122 C65 121.01 65 120.02 65 119 C65.99 119 66.98 119 68 119 C68 118.34 68 117.68 68 117 C69.65 117 71.3 117 73 117 C73 117.66 73 118.32 73 119 C73.99 119 74.98 119 76 119 C76 125.6 76 132.2 76 139 C75.34 139 74.68 139 74 139 C73.505 141.97 73.505 141.97 73 145 C72.34 145 71.68 145 71 145 C71 145.99 71 146.98 71 148 C70.01 148 69.02 148 68 148 C68 148.66 68 149.32 68 150 C66.02 150.33 64.04 150.66 62 151 C62 151.66 62 152.32 62 153 C53.42 153 44.84 153 36 153 C36 152.01 36 151.02 36 150 C34.35 150 32.7 150 31 150 C31 149.01 31 148.02 31 147 C30.01 147 29.02 147 28 147 C28 146.34 28 145.68 28 145 C26.02 145 24.04 145 22 145 C22 144.01 22 143.02 22 142 C21.01 142 20.02 142 19 142 C19 141.01 19 140.02 19 139 C18.34 139 17.68 139 17 139 C17 138.01 17 137.02 17 136 C16.01 136 15.02 136 14 136 C14 135.01 14 134.02 14 133 C13.01 133 12.02 133 11 133 C11 132.01 11 131.02 11 130 C10.01 130 9.02 130 8 130 C8 128.35 8 126.7 8 125 C7.01 125 6.02 125 5 125 C5 123.02 5 121.04 5 119 C4.01 119 3.02 119 2 119 C2 117.02 2 115.04 2 113 C1.01 113 0.02 113 -1 113 C-1.02480062 108.67668037 -1.04290758 104.35339894 -1.05493164 100.0300293 C-1.05994669 98.56062091 -1.06676033 97.09121748 -1.07543945 95.62182617 C-1.08762928 93.50438205 -1.09325669 91.38700417 -1.09765625 89.26953125 C-1.10289307 87.99698486 -1.10812988 86.72443848 -1.11352539 85.41333008 C-1.01539606 82.4629081 -0.69063835 79.86053325 0 77 C0.66 77 1.32 77 2 77 C2 75.02 2 73.04 2 71 C2.99 71 3.98 71 5 71 C5 70.01 5 69.02 5 68 C5.99 68 6.98 68 8 68 C8 66.02 8 64.04 8 62 C8.99 62 9.98 62 11 62 C11 61.01 11 60.02 11 59 C11.99 59 12.98 59 14 59 C14 58.01 14 57.02 14 56 C14.66 56 15.32 56 16 56 C16 55.34 16 54.68 16 54 C14.35 54 12.7 54 11 54 C11 54.66 11 55.32 11 56 C10.01 56 9.02 56 8 56 C8 56.99 8 57.98 8 59 C6.35 59 4.7 59 3 59 C3 58.01 3 57.02 3 56 C2.01 56 1.02 56 0 56 C0 54.35 0 52.7 0 51 C-0.99 51 -1.98 51 -3 51 C-3 49.02 -3 47.04 -3 45 C-3.99 45 -4.98 45 -6 45 C-6 44.01 -6 43.02 -6 42 C-6.99 42 -7.98 42 -9 42 C-9 32.76 -9 23.52 -9 14 C-8.01 14 -7.02 14 -6 14 C-6 12.02 -6 10.04 -6 8 C-5.01 8 -4.02 8 -3 8 C-3 6.35 -3 4.7 -3 3 C-2.01 3 -1.02 3 0 3 C0 2.01 0 1.02 0 0 Z " fill="#1F4525" transform="translate(66,80)"/>
<path d="M0 0 C0.99 0 1.98 0 3 0 C3 2.64 3 5.28 3 8 C3.99 8 4.98 8 6 8 C6 7.34 6 6.68 6 6 C6.99 6 7.98 6 9 6 C9 6.99 9 7.98 9 9 C8.01 9 7.02 9 6 9 C6 10.65 6 12.3 6 14 C5.01 14 4.02 14 3 14 C3 15.98 3 17.96 3 20 C2.01 20 1.02 20 0 20 C0 29.24 0 38.48 0 48 C0.99 48 1.98 48 3 48 C3 48.99 3 49.98 3 51 C3.99 51 4.98 51 6 51 C6 52.98 6 54.96 6 57 C6.99 57 7.98 57 9 57 C9 58.65 9 60.3 9 62 C9.99 62 10.98 62 12 62 C12 62.99 12 63.98 12 65 C13.65 65 15.3 65 17 65 C17 64.01 17 63.02 17 62 C17.99 62 18.98 62 20 62 C20 61.34 20 60.68 20 60 C21.65 60 23.3 60 25 60 C25 60.66 25 61.32 25 62 C24.34 62 23.68 62 23 62 C23 62.99 23 63.98 23 65 C22.01 65 21.02 65 20 65 C20 65.99 20 66.98 20 68 C19.01 68 18.02 68 17 68 C17 69.98 17 71.96 17 74 C16.01 74 15.02 74 14 74 C14 74.99 14 75.98 14 77 C13.01 77 12.02 77 11 77 C11 78.98 11 80.96 11 83 C10.34 83 9.68 83 9 83 C8.67 94.88 8.34 106.76 8 119 C8.99 119 9.98 119 11 119 C11 120.98 11 122.96 11 125 C11.99 125 12.98 125 14 125 C14 126.98 14 128.96 14 131 C14.99 131 15.98 131 17 131 C17 132.65 17 134.3 17 136 C17.99 136 18.98 136 20 136 C20 136.99 20 137.98 20 139 C20.99 139 21.98 139 23 139 C23 139.99 23 140.98 23 142 C23.99 142 24.98 142 26 142 C26 142.99 26 143.98 26 145 C26.66 145 27.32 145 28 145 C28 145.99 28 146.98 28 148 C28.99 148 29.98 148 31 148 C31 148.99 31 149.98 31 151 C32.98 151 34.96 151 37 151 C37 151.66 37 152.32 37 153 C37.99 153 38.98 153 40 153 C40 153.99 40 154.98 40 156 C41.65 156 43.3 156 45 156 C45 156.99 45 157.98 45 159 C53.58 159 62.16 159 71 159 C71 158.34 71 157.68 71 157 C72.98 156.67 74.96 156.34 77 156 C77 155.34 77 154.68 77 154 C77.99 154 78.98 154 80 154 C80 154.66 80 155.32 80 156 C82.64 156 85.28 156 88 156 C88 156.99 88 157.98 88 159 C87.01 159 86.02 159 85 159 C85 158.34 85 157.68 85 157 C84.34 157 83.68 157 83 157 C83 157.66 83 158.32 83 159 C81.68 159 80.36 159 79 159 C79 159.99 79 160.98 79 162 C78.34 162 77.68 162 77 162 C77 162.99 77 163.98 77 165 C74.03 165 71.06 165 68 165 C68 165.99 68 166.98 68 168 C61.4 168 54.8 168 48 168 C48 167.01 48 166.02 48 165 C45.36 165 42.72 165 40 165 C40 164.01 40 163.02 40 162 C39.01 162 38.02 162 37 162 C37 161.01 37 160.02 37 159 C35.02 159 33.04 159 31 159 C31 158.01 31 157.02 31 156 C30.01 156 29.02 156 28 156 C28 155.34 28 154.68 28 154 C26.35 154 24.7 154 23 154 C23 153.01 23 152.02 23 151 C22.01 151 21.02 151 20 151 C20 150.01 20 149.02 20 148 C19.01 148 18.02 148 17 148 C17 146.02 17 144.04 17 142 C16.01 142 15.02 142 14 142 C14 141.01 14 140.02 14 139 C13.01 139 12.02 139 11 139 C11 137.35 11 135.7 11 134 C10.34 134 9.68 134 9 134 C8.67 132.02 8.34 130.04 8 128 C7.01 128 6.02 128 5 128 C5 127.01 5 126.02 5 125 C4.34 125 3.68 125 3 125 C3 122.36 3 119.72 3 117 C2.01 117 1.02 117 0 117 C0 107.43 0 97.86 0 88 C0.99 88 1.98 88 3 88 C3 86.02 3 84.04 3 82 C3.66 82 4.32 82 5 82 C5.33 80.35 5.66 78.7 6 77 C6.66 77 7.32 77 8 77 C8 75.02 8 73.04 8 71 C7.34 71 6.68 71 6 71 C6 70.01 6 69.02 6 68 C5.01 68 4.02 68 3 68 C3 67.01 3 66.02 3 65 C2.01 65 1.02 65 0 65 C0 62.36 0 59.72 0 57 C-0.99 57 -1.98 57 -3 57 C-3 55.02 -3 53.04 -3 51 C-3.99 51 -4.98 51 -6 51 C-6 48.36 -6 45.72 -6 43 C-6.66 43 -7.32 43 -8 43 C-8 36.4 -8 29.8 -8 23 C-7.34 23 -6.68 23 -6 23 C-6 20.03 -6 17.06 -6 14 C-5.01 14 -4.02 14 -3 14 C-3 11.36 -3 8.72 -3 6 C-2.01 6 -1.02 6 0 6 C0 4.02 0 2.04 0 0 Z " fill="#E5EAE6" transform="translate(57,74)"/>
<path d="M0 0 C0.66 0 1.32 0 2 0 C2 0.99 2 1.98 2 3 C2.99 3 3.98 3 5 3 C5 4.98 5 6.96 5 9 C4.01 9 3.02 9 2 9 C2 9.99 2 10.98 2 12 C1.01 12 0.02 12 -1 12 C-1 12.99 -1 13.98 -1 15 C-1.99 15 -2.98 15 -4 15 C-4 15.66 -4 16.32 -4 17 C-4.66 17 -5.32 17 -6 17 C-6 17.99 -6 18.98 -6 20 C-6.99 20 -7.98 20 -9 20 C-9 22.97 -9 25.94 -9 29 C-8.01 29 -7.02 29 -6 29 C-6 29.99 -6 30.98 -6 32 C-5.01 32 -4.02 32 -3 32 C-3 32.66 -3 33.32 -3 34 C-2.34 34 -1.68 34 -1 34 C-1 35.98 -1 37.96 -1 40 C-0.01 40 0.98 40 2 40 C2 40.99 2 41.98 2 43 C2.99 43 3.98 43 5 43 C5 44.98 5 46.96 5 49 C5.99 49 6.98 49 8 49 C8 51.64 8 54.28 8 57 C8.66 57 9.32 57 10 57 C11.21077701 60.63233102 11.12444164 63.95121987 11.09765625 67.73046875 C11.0962413 68.48088943 11.09482635 69.23131012 11.09336853 70.00447083 C11.0877756 72.3988546 11.07522444 74.79314453 11.0625 77.1875 C11.05748408 78.81184761 11.05292134 80.43619668 11.04882812 82.06054688 C11.03780848 86.04040069 11.02054873 90.02018444 11 94 C10.01 94 9.02 94 8 94 C8 94.99 8 95.98 8 97 C7.01 97 6.02 97 5 97 C5 98.98 5 100.96 5 103 C4.01 103 3.02 103 2 103 C2 104.65 2 106.3 2 108 C1.01 108 0.02 108 -1 108 C-1 102.39 -1 96.78 -1 91 C-0.01 91 0.98 91 2 91 C2 89.35 2 87.7 2 86 C2.99 86 3.98 86 5 86 C5 78.41 5 70.82 5 63 C4.01 63 3.02 63 2 63 C2 61.02 2 59.04 2 57 C1.01 57 0.02 57 -1 57 C-1 54.36 -1 51.72 -1 49 C-1.99 49 -2.98 49 -4 49 C-4 47.02 -4 45.04 -4 43 C-4.66 43 -5.32 43 -6 43 C-6 42.01 -6 41.02 -6 40 C-6.99 40 -7.98 40 -9 40 C-9 38.35 -9 36.7 -9 35 C-9.99 35 -10.98 35 -12 35 C-12 34.01 -12 33.02 -12 32 C-12.99 32 -13.98 32 -15 32 C-15 31.01 -15 30.02 -15 29 C-15.99 29 -16.98 29 -18 29 C-18 28.01 -18 27.02 -18 26 C-23.61 26 -29.22 26 -35 26 C-35 25.01 -35 24.02 -35 23 C-33.02 23 -31.04 23 -29 23 C-29 22.34 -29 21.68 -29 21 C-25.04 20.505 -25.04 20.505 -21 20 C-21 19.01 -21 18.02 -21 17 C-19.02 17 -17.04 17 -15 17 C-15 16.34 -15 15.68 -15 15 C-13.02 15 -11.04 15 -9 15 C-9 14.01 -9 13.02 -9 12 C-8.01 12 -7.02 12 -6 12 C-6 11.01 -6 10.02 -6 9 C-5.01 9 -4.02 9 -3 9 C-3 7.02 -3 5.04 -3 3 C-2.01 3 -1.02 3 0 3 C0 2.01 0 1.02 0 0 Z " fill="#E8EDE9" transform="translate(194,102)"/>
<path d="M0 0 C1.98 0 3.96 0 6 0 C6 0.66 6 1.32 6 2 C8.475 2.495 8.475 2.495 11 3 C11 4.65 11 6.3 11 8 C11.99 8 12.98 8 14 8 C14 14.6 14 21.2 14 28 C13.34 28 12.68 28 12 28 C11.67 29.98 11.34 31.96 11 34 C10.34 34 9.68 34 9 34 C9 34.99 9 35.98 9 37 C4.05 37 -0.9 37 -6 37 C-6 36.01 -6 35.02 -6 34 C-7.65 34 -9.3 34 -11 34 C-11 33.01 -11 32.02 -11 31 C-12.98 31 -14.96 31 -17 31 C-17 26.38 -17 21.76 -17 17 C-16.01 17 -15.02 17 -14 17 C-14 16.01 -14 15.02 -14 14 C-13.01 14 -12.02 14 -11 14 C-11 12.02 -11 10.04 -11 8 C-10.01 8 -9.02 8 -8 8 C-8 7.34 -8 6.68 -8 6 C-3.64705882 2 -3.64705882 2 0 2 C0 1.34 0 0.68 0 0 Z " fill="#FBFCFB" transform="translate(145,77)"/>
<path d="M0 0 C0.99 0 1.98 0 3 0 C3 84.48 3 168.96 3 256 C2.01 256 1.02 256 0 256 C0 171.52 0 87.04 0 0 Z " fill="#000000" transform="translate(253,0)"/>
<path d="M0 0 C0.99 0 1.98 0 3 0 C3 84.48 3 168.96 3 256 C2.01 256 1.02 256 0 256 C0 171.52 0 87.04 0 0 Z " fill="#000000" transform="translate(0,0)"/>
<path d="M0 0 C0.99 0 1.98 0 3 0 C3 2.64 3 5.28 3 8 C3.99 8 4.98 8 6 8 C6 7.34 6 6.68 6 6 C6.99 6 7.98 6 9 6 C9 6.99 9 7.98 9 9 C8.01 9 7.02 9 6 9 C6 10.65 6 12.3 6 14 C5.01 14 4.02 14 3 14 C3 15.98 3 17.96 3 20 C2.01 20 1.02 20 0 20 C0 29.24 0 38.48 0 48 C0.99 48 1.98 48 3 48 C3 48.99 3 49.98 3 51 C3.99 51 4.98 51 6 51 C6 52.98 6 54.96 6 57 C6.99 57 7.98 57 9 57 C9 58.65 9 60.3 9 62 C9.99 62 10.98 62 12 62 C12 62.99 12 63.98 12 65 C13.65 65 15.3 65 17 65 C17 64.01 17 63.02 17 62 C17.99 62 18.98 62 20 62 C20 61.34 20 60.68 20 60 C21.65 60 23.3 60 25 60 C25 60.66 25 61.32 25 62 C24.34 62 23.68 62 23 62 C23 62.99 23 63.98 23 65 C22.01 65 21.02 65 20 65 C20 65.99 20 66.98 20 68 C19.01 68 18.02 68 17 68 C17 69.98 17 71.96 17 74 C16.01 74 15.02 74 14 74 C14 74.99 14 75.98 14 77 C13.01 77 12.02 77 11 77 C11 78.98 11 80.96 11 83 C10.34 83 9.68 83 9 83 C9 84.65 9 86.3 9 88 C8.67 88 8.34 88 8 88 C8 85.36 8 82.72 8 80 C7.34 80 6.68 80 6 80 C6 79.01 6 78.02 6 77 C6.66 77 7.32 77 8 77 C8 75.02 8 73.04 8 71 C7.34 71 6.68 71 6 71 C6 70.01 6 69.02 6 68 C5.01 68 4.02 68 3 68 C3 67.01 3 66.02 3 65 C2.01 65 1.02 65 0 65 C0 62.36 0 59.72 0 57 C-0.99 57 -1.98 57 -3 57 C-3 55.02 -3 53.04 -3 51 C-3.99 51 -4.98 51 -6 51 C-6 48.36 -6 45.72 -6 43 C-6.66 43 -7.32 43 -8 43 C-8 36.4 -8 29.8 -8 23 C-7.34 23 -6.68 23 -6 23 C-6 20.03 -6 17.06 -6 14 C-5.01 14 -4.02 14 -3 14 C-3 11.36 -3 8.72 -3 6 C-2.01 6 -1.02 6 0 6 C0 4.02 0 2.04 0 0 Z " fill="#DEE4DF" transform="translate(57,74)"/>
<path d="M0 0 C0.99 0 1.98 0 3 0 C3.495 2.475 3.495 2.475 4 5 C4.66 5 5.32 5 6 5 C6 7.97 6 10.94 6 14 C6.99 14 7.98 14 9 14 C9 14.66 9 15.32 9 16 C9.99 16 10.98 16 12 16 C12 16.99 12 17.98 12 19 C13.65 19.33 15.3 19.66 17 20 C17 20.66 17 21.32 17 22 C18.98 22 20.96 22 23 22 C23 22.99 23 23.98 23 25 C20.36 25 17.72 25 15 25 C15 25.99 15 26.98 15 28 C14.01 28 13.02 28 12 28 C12 27.01 12 26.02 12 25 C11.01 25 10.02 25 9 25 C9 24.01 9 23.02 9 22 C7.02 22 5.04 22 3 22 C3 21.34 3 20.68 3 20 C-0.63 20 -4.26 20 -8 20 C-8 19.01 -8 18.02 -8 17 C-7.01 17 -6.02 17 -5 17 C-5 16.01 -5 15.02 -5 14 C-4.34 14 -3.68 14 -3 14 C-3 13.01 -3 12.02 -3 11 C-13.89 11 -24.78 11 -36 11 C-36 11.99 -36 12.98 -36 14 C-38.97 14 -41.94 14 -45 14 C-45 12.02 -45 10.04 -45 8 C-42.03 8 -39.06 8 -36 8 C-36 7.34 -36 6.68 -36 6 C-33.28598706 4.64299353 -31.15153684 4.8876139 -28.1171875 4.90234375 C-26.95058594 4.90556641 -25.78398437 4.90878906 -24.58203125 4.91210938 C-23.35871094 4.92048828 -22.13539063 4.92886719 -20.875 4.9375 C-19.64394531 4.94201172 -18.41289062 4.94652344 -17.14453125 4.95117188 C-14.09630608 4.9629867 -11.04817686 4.97945972 -8 5 C-8 4.01 -8 3.02 -8 2 C-5.36 2 -2.72 2 0 2 C0 1.34 0 0.68 0 0 Z " fill="#F1F4F2" transform="translate(173,29)"/>
<path d="M0 0 C6.6 0 13.2 0 20 0 C20 0.66 20 1.32 20 2 C20.99 2 21.98 2 23 2 C23 2.99 23 3.98 23 5 C23.66 5 24.32 5 25 5 C25 5.99 25 6.98 25 8 C23.35 8 21.7 8 20 8 C20 8.99 20 9.98 20 11 C18.02 11 16.04 11 14 11 C14 11.66 14 12.32 14 13 C10.37 13 6.74 13 3 13 C3 12.34 3 11.68 3 11 C1.02 11 -0.96 11 -3 11 C-3 8.03 -3 5.06 -3 2 C-2.01 2 -1.02 2 0 2 C0 1.34 0 0.68 0 0 Z " fill="#F4F6F5" transform="translate(185,228)"/>
<path d="M0 0 C0.99 0 1.98 0 3 0 C3 2.64 3 5.28 3 8 C3.99 8 4.98 8 6 8 C6 7.34 6 6.68 6 6 C6.99 6 7.98 6 9 6 C9 6.99 9 7.98 9 9 C8.01 9 7.02 9 6 9 C6 10.65 6 12.3 6 14 C5.01 14 4.02 14 3 14 C3 15.98 3 17.96 3 20 C2.01 20 1.02 20 0 20 C0 27.59 0 35.18 0 43 C-0.99 43 -1.98 43 -3 43 C-3 35.41 -3 27.82 -3 20 C-3.66 20 -4.32 20 -5 20 C-5 29.24 -5 38.48 -5 48 C-4.34 48 -3.68 48 -3 48 C-3 48.99 -3 49.98 -3 51 C-3.99 51 -4.98 51 -6 51 C-6 48.36 -6 45.72 -6 43 C-6.66 43 -7.32 43 -8 43 C-8 36.4 -8 29.8 -8 23 C-7.34 23 -6.68 23 -6 23 C-6 20.03 -6 17.06 -6 14 C-5.01 14 -4.02 14 -3 14 C-3 11.36 -3 8.72 -3 6 C-2.01 6 -1.02 6 0 6 C0 4.02 0 2.04 0 0 Z " fill="#F5F7F6" transform="translate(57,74)"/>
<path d="M0 0 C0.99 0 1.98 0 3 0 C3 2.64 3 5.28 3 8 C3.66 8 4.32 8 5 8 C6.21077701 11.63233102 6.12444164 14.95121987 6.09765625 18.73046875 C6.0962413 19.48088943 6.09482635 20.23131012 6.09336853 21.00447083 C6.0877756 23.3988546 6.07522444 25.79314453 6.0625 28.1875 C6.05748408 29.81184761 6.05292134 31.43619668 6.04882812 33.06054688 C6.03780848 37.04040069 6.02054873 41.02018444 6 45 C5.01 45 4.02 45 3 45 C3 45.99 3 46.98 3 48 C2.01 48 1.02 48 0 48 C0 49.98 0 51.96 0 54 C-0.99 54 -1.98 54 -3 54 C-3 55.65 -3 57.3 -3 59 C-3.99 59 -4.98 59 -6 59 C-6 53.39 -6 47.78 -6 42 C-5.01 42 -4.02 42 -3 42 C-3 40.35 -3 38.7 -3 37 C-2.01 37 -1.02 37 0 37 C0 37.99 0 38.98 0 40 C0.66 40 1.32 40 2 40 C2 28.78 2 17.56 2 6 C1.34 6 0.68 6 0 6 C0 4.02 0 2.04 0 0 Z " fill="#D3DBD5" transform="translate(199,151)"/>
<path d="M0 0 C6.6 0 13.2 0 20 0 C20 0.99 20 1.98 20 3 C20.99 3 21.98 3 23 3 C23 3.99 23 4.98 23 6 C23.99 6 24.98 6 26 6 C26 5.01 26 4.02 26 3 C26.99 3 27.98 3 29 3 C29 4.98 29 6.96 29 9 C27.02 9 25.04 9 23 9 C23 9.99 23 10.98 23 12 C22.01 12 21.02 12 20 12 C20 11.01 20 10.02 20 9 C12.41 9 4.82 9 -3 9 C-3 9.66 -3 10.32 -3 11 C-3.99 11 -4.98 11 -6 11 C-6 11.99 -6 12.98 -6 14 C-6.66 14 -7.32 14 -8 14 C-8 12.35 -8 10.7 -8 9 C-7.34 9 -6.68 9 -6 9 C-6 8.01 -6 7.02 -6 6 C-5.01 6 -4.02 6 -3 6 C-3 5.01 -3 4.02 -3 3 C-2.01 3 -1.02 3 0 3 C0 2.01 0 1.02 0 0 Z " fill="#ECF0ED" transform="translate(91,179)"/>
<path d="M0 0 C0.33 0.66 0.66 1.32 1 2 C1.66 2 2.32 2 3 2 C3 3.98 3 5.96 3 8 C3.99 8 4.98 8 6 8 C6 8.99 6 9.98 6 11 C6.99 11 7.98 11 9 11 C9 14.96 9 18.92 9 23 C9.66 23 10.32 23 11 23 C11.20032453 26.60357025 11.38282186 30.20784601 11.5625 33.8125 C11.61857422 34.81732422 11.67464844 35.82214844 11.73242188 36.85742188 C12.06100134 43.66996944 11.80176585 50.22721044 11 57 C10.34 57 9.68 57 9 57 C9 48.42 9 39.84 9 31 C8.01 31 7.02 31 6 31 C6 29.02 6 27.04 6 25 C5.01 25 4.02 25 3 25 C3 22.36 3 19.72 3 17 C2.01 17 1.02 17 0 17 C0 15.02 0 13.04 0 11 C-0.66 11 -1.32 11 -2 11 C-2 10.01 -2 9.02 -2 8 C-1.34 8 -0.68 8 0 8 C0 5.36 0 2.72 0 0 Z " fill="#BBC7BD" transform="translate(190,134)"/>
<path d="M0 0 C2.97 0 5.94 0 9 0 C9 0.99 9 1.98 9 3 C9.99 3 10.98 3 12 3 C12 3.99 12 4.98 12 6 C10.02 6 8.04 6 6 6 C6 6.66 6 7.32 6 8 C4.02 8 2.04 8 0 8 C0 9.32 0 10.64 0 12 C-0.66 12 -1.32 12 -2 12 C-1.979375 13.258125 -1.95875 14.51625 -1.9375 15.8125 C-1.89113917 18.64051087 -2.08307039 20.24921116 -3 23 C-3.66 23 -4.32 23 -5 23 C-5 26.63 -5 30.26 -5 34 C-6.98 34 -8.96 34 -11 34 C-11 33.01 -11 32.02 -11 31 C-9.35 31 -7.7 31 -6 31 C-6 25.39 -6 19.78 -6 14 C-6.66 14 -7.32 14 -8 14 C-8 12.02 -8 10.04 -8 8 C-7.34 8 -6.68 8 -6 8 C-5.67 7.01 -5.34 6.02 -5 5 C-4.34 5 -3.68 5 -3 5 C-3 4.34 -3 3.68 -3 3 C-2.01 3 -1.02 3 0 3 C0 2.01 0 1.02 0 0 Z " fill="#E9EDEA" transform="translate(176,165)"/>
<path d="M0 0 C0.99 0 1.98 0 3 0 C3 0.99 3 1.98 3 3 C3.99 3 4.98 3 6 3 C6 9.6 6 16.2 6 23 C6.99 23 7.98 23 9 23 C9 23.66 9 24.32 9 25 C9.99 25 10.98 25 12 25 C12 26.32 12 27.64 12 29 C12.66 29 13.32 29 14 29 C14 29.66 14 30.32 14 31 C12.35 31 10.7 31 9 31 C9 30.34 9 29.68 9 29 C8.01 29 7.02 29 6 29 C6 28.01 6 27.02 6 26 C5.01 26 4.02 26 3 26 C3 25.01 3 24.02 3 23 C2.01 23 1.02 23 0 23 C0 15.41 0 7.82 0 0 Z " fill="#3A5C40" transform="translate(68,37)"/>
<path d="M0 0 C0 3.96 0 7.92 0 12 C-0.99 12 -1.98 12 -3 12 C-3 12.99 -3 13.98 -3 15 C-5.64 15 -8.28 15 -11 15 C-11 14.01 -11 13.02 -11 12 C-11.99 12 -12.98 12 -14 12 C-14 9.03 -14 6.06 -14 3 C-12.35 3 -10.7 3 -9 3 C-9 2.34 -9 1.68 -9 1 C-6 0 -6 0 0 0 Z " fill="#FCFCFC" transform="translate(182,79)"/>
<path d="M0 0 C0.66 0 1.32 0 2 0 C2 0.99 2 1.98 2 3 C2.99 3 3.98 3 5 3 C5 4.98 5 6.96 5 9 C4.01 9 3.02 9 2 9 C2 9.99 2 10.98 2 12 C1.01 12 0.02 12 -1 12 C-1 12.99 -1 13.98 -1 15 C-1.99 15 -2.98 15 -4 15 C-4 15.66 -4 16.32 -4 17 C-4.66 17 -5.32 17 -6 17 C-6 17.99 -6 18.98 -6 20 C-6.99 20 -7.98 20 -9 20 C-9 21.98 -9 23.96 -9 26 C-9.99 26 -10.98 26 -12 26 C-12 24.02 -12 22.04 -12 20 C-11.34 20 -10.68 20 -10 20 C-10 19.34 -10 18.68 -10 18 C-12.64 18 -15.28 18 -18 18 C-18 18.66 -18 19.32 -18 20 C-18.99 20 -19.98 20 -21 20 C-21 19.01 -21 18.02 -21 17 C-19.02 17 -17.04 17 -15 17 C-15 16.34 -15 15.68 -15 15 C-13.02 15 -11.04 15 -9 15 C-9 14.01 -9 13.02 -9 12 C-8.01 12 -7.02 12 -6 12 C-6 11.01 -6 10.02 -6 9 C-5.01 9 -4.02 9 -3 9 C-3 7.02 -3 5.04 -3 3 C-2.01 3 -1.02 3 0 3 C0 2.01 0 1.02 0 0 Z " fill="#EDF1EE" transform="translate(194,102)"/>
<path d="M0 0 C1.98 0 3.96 0 6 0 C6 0.99 6 1.98 6 3 C6.99 3 7.98 3 9 3 C9 6.96 9 10.92 9 15 C7.02 15 5.04 15 3 15 C3 15.66 3 16.32 3 17 C2.01 17 1.02 17 0 17 C0 16.34 0 15.68 0 15 C-0.99 15 -1.98 15 -3 15 C-3.02712066 13.56260487 -3.04645067 12.12506137 -3.0625 10.6875 C-3.07410156 9.88699219 -3.08570312 9.08648437 -3.09765625 8.26171875 C-3 6 -3 6 -2 3 C-1.34 3 -0.68 3 0 3 C0 2.01 0 1.02 0 0 Z " fill="#C7D1CA" transform="translate(122,65)"/>
<path d="M0 0 C1.02802734 0.00322266 2.05605469 0.00644531 3.11523438 0.00976562 C4.72301758 0.02233398 4.72301758 0.02233398 6.36328125 0.03515625 C7.44673828 0.03966797 8.53019531 0.04417969 9.64648438 0.04882812 C12.3229721 0.06061882 14.99934902 0.07707562 17.67578125 0.09765625 C17.67578125 0.42765625 17.67578125 0.75765625 17.67578125 1.09765625 C12.06578125 1.09765625 6.45578125 1.09765625 0.67578125 1.09765625 C0.67578125 1.75765625 0.67578125 2.41765625 0.67578125 3.09765625 C-0.31421875 3.09765625 -1.30421875 3.09765625 -2.32421875 3.09765625 C-2.32421875 6.06765625 -2.32421875 9.03765625 -2.32421875 12.09765625 C-0.34421875 12.09765625 1.63578125 12.09765625 3.67578125 12.09765625 C3.67578125 12.75765625 3.67578125 13.41765625 3.67578125 14.09765625 C7.30578125 14.09765625 10.93578125 14.09765625 14.67578125 14.09765625 C14.67578125 13.43765625 14.67578125 12.77765625 14.67578125 12.09765625 C15.66578125 12.09765625 16.65578125 12.09765625 17.67578125 12.09765625 C17.67578125 13.08765625 17.67578125 14.07765625 17.67578125 15.09765625 C11.07578125 15.09765625 4.47578125 15.09765625 -2.32421875 15.09765625 C-2.32421875 16.08765625 -2.32421875 17.07765625 -2.32421875 18.09765625 C-3.31421875 18.09765625 -4.30421875 18.09765625 -5.32421875 18.09765625 C-5.32421875 16.11765625 -5.32421875 14.13765625 -5.32421875 12.09765625 C-6.31421875 12.09765625 -7.30421875 12.09765625 -8.32421875 12.09765625 C-8.32421875 10.11765625 -8.32421875 8.13765625 -8.32421875 6.09765625 C-8.98421875 6.09765625 -9.64421875 6.09765625 -10.32421875 6.09765625 C-10.32421875 5.10765625 -10.32421875 4.11765625 -10.32421875 3.09765625 C-9.66421875 3.09765625 -9.00421875 3.09765625 -8.32421875 3.09765625 C-8.32421875 2.43765625 -8.32421875 1.77765625 -8.32421875 1.09765625 C-5.26502487 0.07792496 -3.2000385 -0.01767977 0 0 Z " fill="#46664C" transform="translate(184.32421875,226.90234375)"/>
<path d="M0 0 C1.65 0 3.3 0 5 0 C5 5.61 5 11.22 5 17 C2.36 17 -0.28 17 -3 17 C-3 16.01 -3 15.02 -3 14 C-5.97 14 -8.94 14 -12 14 C-12 14.99 -12 15.98 -12 17 C-12.66 17 -13.32 17 -14 17 C-14 15.02 -14 13.04 -14 11 C-11.36 11 -8.72 11 -6 11 C-6 10.34 -6 9.68 -6 9 C-4.02 9 -2.04 9 0 9 C0 6.03 0 3.06 0 0 Z " fill="#E5EAE6" transform="translate(165,179)"/>
<path d="M0 0 C0.99 0 1.98 0 3 0 C3 2.64 3 5.28 3 8 C4.65 8 6.3 8 8 8 C8 8.99 8 9.98 8 11 C8.84304687 10.98839844 9.68609375 10.97679687 10.5546875 10.96484375 C11.65039062 10.95582031 12.74609375 10.94679688 13.875 10.9375 C15.51082031 10.92009766 15.51082031 10.92009766 17.1796875 10.90234375 C20 11 20 11 22 12 C22 12.66 22 13.32 22 14 C23.98 14 25.96 14 28 14 C28 14.99 28 15.98 28 17 C25.36 17 22.72 17 20 17 C20 17.99 20 18.98 20 20 C19.01 20 18.02 20 17 20 C17 19.01 17 18.02 17 17 C16.01 17 15.02 17 14 17 C14 16.01 14 15.02 14 14 C12.02 14 10.04 14 8 14 C8 13.34 8 12.68 8 12 C4.37 12 0.74 12 -3 12 C-3 11.01 -3 10.02 -3 9 C-2.01 9 -1.02 9 0 9 C0 8.01 0 7.02 0 6 C0.66 6 1.32 6 2 6 C2 5.01 2 4.02 2 3 C0.35 3 -1.3 3 -3 3 C-2.01 2.67 -1.02 2.34 0 2 C0 1.34 0 0.68 0 0 Z " fill="#D1DAD3" transform="translate(168,37)"/>
<path d="M0 0 C0.99 0 1.98 0 3 0 C3 0.99 3 1.98 3 3 C2.34 3 1.68 3 1 3 C1 4.65 1 6.3 1 8 C0.01 8 -0.98 8 -2 8 C-2 18.56 -2 29.12 -2 40 C-1.34 40 -0.68 40 0 40 C0 40.66 0 41.32 0 42 C-0.99 42 -1.98 42 -3 42 C-3 40.35 -3 38.7 -3 37 C-3.66 37 -4.32 37 -5 37 C-5.33 35.02 -5.66 33.04 -6 31 C-6.66 31 -7.32 31 -8 31 C-8 27.37 -8 23.74 -8 20 C-7.34 20 -6.68 20 -6 20 C-6 17.03 -6 14.06 -6 11 C-5.01 11 -4.02 11 -3 11 C-3 9.02 -3 7.04 -3 5 C-2.01 5 -1.02 5 0 5 C0 3.35 0 1.7 0 0 Z " fill="#436349" transform="translate(105,60)"/>
<path d="M0 0 C0.99 0 1.98 0 3 0 C3 0.66 3 1.32 3 2 C5.64 2 8.28 2 11 2 C11 2.99 11 3.98 11 5 C10.01 5 9.02 5 8 5 C8 4.34 8 3.68 8 3 C7.34 3 6.68 3 6 3 C6 3.66 6 4.32 6 5 C4.68 5 3.36 5 2 5 C2 5.99 2 6.98 2 8 C1.34 8 0.68 8 0 8 C0 8.99 0 9.98 0 11 C-1.98 11 -3.96 11 -6 11 C-6 10.01 -6 9.02 -6 8 C-5.01 8 -4.02 8 -3 8 C-3 7.34 -3 6.68 -3 6 C-4.98 6 -6.96 6 -9 6 C-9 6.66 -9 7.32 -9 8 C-14.61 8 -20.22 8 -26 8 C-26 7.01 -26 6.02 -26 5 C-19.4 5 -12.8 5 -6 5 C-6 4.34 -6 3.68 -6 3 C-4.02 2.67 -2.04 2.34 0 2 C0 1.34 0 0.68 0 0 Z " fill="#CED7D0" transform="translate(134,228)"/>
<path d="M0 0 C2.97 0 5.94 0 9 0 C9 0.66 9 1.32 9 2 C10.98 2 12.96 2 15 2 C15 7.94 15 13.88 15 20 C14.67 20 14.34 20 14 20 C14 14.39 14 8.78 14 3 C7.73 3 1.46 3 -5 3 C-5 12.24 -5 21.48 -5 31 C-5.99 31 -6.98 31 -8 31 C-8 30.01 -8 29.02 -8 28 C-8.99 28 -9.98 28 -11 28 C-11 27.01 -11 26.02 -11 25 C-10.01 25 -9.02 25 -8 25 C-8 19.39 -8 13.78 -8 8 C-7.34 8 -6.68 8 -6 8 C-6 6.02 -6 4.04 -6 2 C-4.02 2 -2.04 2 0 2 C0 1.34 0 0.68 0 0 Z " fill="#8AA090" transform="translate(122,117)"/>
<path d="M0 0 C5.61 0 11.22 0 17 0 C17 0.99 17 1.98 17 3 C15.02 3 13.04 3 11 3 C11 3.99 11 4.98 11 6 C1.76 6 -7.48 6 -17 6 C-17 5.01 -17 4.02 -17 3 C-11.39 3 -5.78 3 0 3 C0 2.01 0 1.02 0 0 Z " fill="#D0D9D2" transform="translate(151,139)"/>
<path d="M0 0 C0.99 0 1.98 0 3 0 C3 0.99 3 1.98 3 3 C2.34 3 1.68 3 1 3 C1 8.61 1 14.22 1 20 C0.01 20 -0.98 20 -2 20 C-2 23.63 -2 27.26 -2 31 C-1.34 31 -0.68 31 0 31 C0.95261487 35.76307437 1.08333357 40.1666528 1 45 C1.66 45 2.32 45 3 45 C3 45.99 3 46.98 3 48 C2.01 48 1.02 48 0 48 C0 46.02 0 44.04 0 42 C-0.99 42 -1.98 42 -3 42 C-3.02480062 37.67668037 -3.04290758 33.35339894 -3.05493164 29.0300293 C-3.05994669 27.56062091 -3.06676033 26.09121748 -3.07543945 24.62182617 C-3.08762928 22.50438205 -3.09325669 20.38700417 -3.09765625 18.26953125 C-3.10289307 16.99698486 -3.10812988 15.72443848 -3.11352539 14.41333008 C-3.01539606 11.4629081 -2.69063835 8.86053325 -2 6 C-1.34 6 -0.68 6 0 6 C0 4.02 0 2.04 0 0 Z " fill="#647F69" transform="translate(68,151)"/>
<path d="M0 0 C0.99 0 1.98 0 3 0 C3 1.98 3 3.96 3 6 C3.99 6 4.98 6 6 6 C6 7.65 6 9.3 6 11 C6.99 11 7.98 11 9 11 C9 11.99 9 12.98 9 14 C10.65 14 12.3 14 14 14 C14 13.01 14 12.02 14 11 C14.99 11 15.98 11 17 11 C17 10.34 17 9.68 17 9 C18.65 9 20.3 9 22 9 C22 9.66 22 10.32 22 11 C21.34 11 20.68 11 20 11 C20 11.99 20 12.98 20 14 C19.01 14 18.02 14 17 14 C17 14.99 17 15.98 17 17 C16.01 17 15.02 17 14 17 C14 18.98 14 20.96 14 23 C13.01 23 12.02 23 11 23 C11 21.35 11 19.7 11 18 C10.01 18 9.02 18 8 18 C8 16.68 8 15.36 8 14 C7.34 14 6.68 14 6 14 C6 13.34 6 12.68 6 12 C4.68 12 3.36 12 2 12 C2 9.03 2 6.06 2 3 C1.34 3 0.68 3 0 3 C0 2.01 0 1.02 0 0 Z " fill="#B5C3B9" transform="translate(60,125)"/>
<path d="M0 0 C0.99 0 1.98 0 3 0 C3 1.98 3 3.96 3 6 C3.66 6 4.32 6 5 6 C5.20032453 9.60357025 5.38282186 13.20784601 5.5625 16.8125 C5.61857422 17.81732422 5.67464844 18.82214844 5.73242188 19.85742188 C6.06100134 26.66996944 5.80176585 33.22721044 5 40 C4.34 40 3.68 40 3 40 C3 31.42 3 22.84 3 14 C2.01 14 1.02 14 0 14 C0 9.38 0 4.76 0 0 Z " fill="#F5F7F5" transform="translate(196,151)"/>
<path d="M0 0 C0.99 0 1.98 0 3 0 C3 0.99 3 1.98 3 3 C3.66 3 4.32 3 5 3 C5 3.66 5 4.32 5 5 C4.34 5 3.68 5 3 5 C3 8.96 3 12.92 3 17 C2.01 17 1.02 17 0 17 C0 18.65 0 20.3 0 22 C-0.99 22 -1.98 22 -3 22 C-3 16.39 -3 10.78 -3 5 C-2.01 5 -1.02 5 0 5 C0 3.35 0 1.7 0 0 Z " fill="#EEF1EF" transform="translate(196,188)"/>
<path d="M0 0 C0.66 0 1.32 0 2 0 C2 7.59 2 15.18 2 23 C2.99 23 3.98 23 5 23 C5 25.64 5 28.28 5 31 C5.66 31 6.32 31 7 31 C6.49396008 33.16874252 6.00016187 34.99967627 5 37 C4.01 37 3.02 37 2 37 C2 34.03 2 31.06 2 28 C1.34 28 0.68 28 0 28 C0 18.76 0 9.52 0 0 Z " fill="#F4F6F5" transform="translate(52,94)"/>
<path d="M0 0 C1.65 0 3.3 0 5 0 C5 0.99 5 1.98 5 3 C5.99 3 6.98 3 8 3 C8 3.99 8 4.98 8 6 C9.98 6 11.96 6 14 6 C14 6.66 14 7.32 14 8 C14.99 8 15.98 8 17 8 C17 8.99 17 9.98 17 11 C16.01 11 15.02 11 14 11 C14 10.34 14 9.68 14 9 C12.02 9 10.04 9 8 9 C8 9.66 8 10.32 8 11 C7.01 11 6.02 11 5 11 C5 10.34 5 9.68 5 9 C3.35 9 1.7 9 0 9 C0 6.03 0 3.06 0 0 Z " fill="#E0E6E2" transform="translate(80,219)"/>
<path d="M0 0 C0.99 0 1.98 0 3 0 C3 1.65 3 3.3 3 5 C3.66 5 4.32 5 5 5 C5 6.98 5 8.96 5 11 C4.34 11 3.68 11 3 11 C3 16.61 3 22.22 3 28 C2.01 28 1.02 28 0 28 C0 18.76 0 9.52 0 0 Z " fill="#2F5235" transform="translate(111,114)"/>
<path d="M0 0 C0.99 0 1.98 0 3 0 C3 0.99 3 1.98 3 3 C8.61 3 14.22 3 20 3 C20 3.99 20 4.98 20 6 C13.4 6 6.8 6 0 6 C0 6.66 0 7.32 0 8 C-0.99 8 -1.98 8 -3 8 C-3 8.99 -3 9.98 -3 11 C-3.66 11 -4.32 11 -5 11 C-5 9.35 -5 7.7 -5 6 C-4.34 6 -3.68 6 -3 6 C-3 5.01 -3 4.02 -3 3 C-2.01 3 -1.02 3 0 3 C0 2.01 0 1.02 0 0 Z " fill="#C8D2CB" transform="translate(88,182)"/>
<path d="M0 0 C5.61 0 11.22 0 17 0 C17 5.61 17 11.22 17 17 C16.01 17 15.02 17 14 17 C13.97294271 15.22925083 13.95357805 13.45838289 13.9375 11.6875 C13.92589844 10.70136719 13.91429688 9.71523438 13.90234375 8.69921875 C14 6 14 6 15 3 C10.05 3 5.1 3 0 3 C0 2.01 0 1.02 0 0 Z " fill="#DAE1DC" transform="translate(51,37)"/>
<path d="M0 0 C0.99 0 1.98 0 3 0 C3 0.99 3 1.98 3 3 C2.34 3 1.68 3 1 3 C1 13.23 1 23.46 1 34 C1.66 34 2.32 34 3 34 C3 34.99 3 35.98 3 37 C2.01 37 1.02 37 0 37 C0 34.36 0 31.72 0 29 C-0.66 29 -1.32 29 -2 29 C-2 22.4 -2 15.8 -2 9 C-1.34 9 -0.68 9 0 9 C0 6.03 0 3.06 0 0 Z " fill="#90A595" transform="translate(51,88)"/>
<path d="M0 0 C1.98 0 3.96 0 6 0 C6 0.66 6 1.32 6 2 C15.24 2 24.48 2 34 2 C34 1.34 34 0.68 34 0 C35.98 0 37.96 0 40 0 C40 0.66 40 1.32 40 2 C36.64264863 3.11911712 34.11794614 3.11365586 30.58203125 3.09765625 C29.32841797 3.09443359 28.07480469 3.09121094 26.78320312 3.08789062 C25.47287109 3.07951172 24.16253906 3.07113281 22.8125 3.0625 C21.47721519 3.05748317 20.14192859 3.05292059 18.80664062 3.04882812 C15.53771527 3.03702695 12.26888009 3.02056297 9 3 C9 3.99 9 4.98 9 6 C6.03 6 3.06 6 0 6 C0 4.02 0 2.04 0 0 Z " fill="#DCE2DE" transform="translate(128,37)"/>
<path d="M0 0 C0.99 0 1.98 0 3 0 C3 9.57 3 19.14 3 29 C2.01 29 1.02 29 0 29 C0 19.43 0 9.86 0 0 Z " fill="#A8B8AB" transform="translate(57,162)"/>
<path d="M0 0 C0.99 0 1.98 0 3 0 C3 1.98 3 3.96 3 6 C1.02 6.33 -0.96 6.66 -3 7 C-3 7.66 -3 8.32 -3 9 C-8.61 9 -14.22 9 -20 9 C-20 8.34 -20 7.68 -20 7 C-20.99 6.67 -21.98 6.34 -23 6 C-16.4 6 -9.8 6 -3 6 C-3 5.01 -3 4.02 -3 3 C-2.01 3 -1.02 3 0 3 C0 2.01 0 1.02 0 0 Z " fill="#78917E" transform="translate(182,247)"/>
<path d="M0 0 C0.99 0 1.98 0 3 0 C3 9.24 3 18.48 3 28 C2.01 28 1.02 28 0 28 C0 18.76 0 9.52 0 0 Z " fill="#48684E" transform="translate(57,94)"/>
<path d="M0 0 C0.99 0 1.98 0 3 0 C3 0.99 3 1.98 3 3 C2.01 3 1.02 3 0 3 C0 3.99 0 4.98 0 6 C-6.6 6 -13.2 6 -20 6 C-20 6.66 -20 7.32 -20 8 C-20.99 8 -21.98 8 -23 8 C-23 7.01 -23 6.02 -23 5 C-22.01 5 -21.02 5 -20 5 C-20 4.34 -20 3.68 -20 3 C-10.1 2.505 -10.1 2.505 0 2 C0 1.34 0 0.68 0 0 Z " fill="#819886" transform="translate(222,97)"/>
<path d="M0 0 C0.66 0 1.32 0 2 0 C2 10.23 2 20.46 2 31 C1.34 31 0.68 31 0 31 C0 30.01 0 29.02 0 28 C-0.99 28 -1.98 28 -3 28 C-3 26.35 -3 24.7 -3 23 C-2.34 22.67 -1.68 22.34 -1 22 C-0.67 14.74 -0.34 7.48 0 0 Z " fill="#DAE0DB" transform="translate(63,168)"/>
<path d="M0 0 C0.99 0 1.98 0 3 0 C3 8.58 3 17.16 3 26 C2.01 26 1.02 26 0 26 C0 17.42 0 8.84 0 0 Z " fill="#BAC8BE" transform="translate(108,111)"/>
<path d="M0 0 C0.99 0 1.98 0 3 0 C3 8.25 3 16.5 3 25 C2.01 25 1.02 25 0 25 C0 16.75 0 8.5 0 0 Z " fill="#E9EDEA" transform="translate(233,60)"/>
<path d="M0 0 C7.59 0 15.18 0 23 0 C23 0.66 23 1.32 23 2 C23.99 2.33 24.98 2.66 26 3 C17.42 3 8.84 3 0 3 C0 2.01 0 1.02 0 0 Z " fill="#C2CDC4" transform="translate(91,20)"/>
<path d="M0 0 C0.99 0 1.98 0 3 0 C3 2.64 3 5.28 3 8 C4.65 8 6.3 8 8 8 C8 8.99 8 9.98 8 11 C8.99 11 9.98 11 11 11 C11 11.99 11 12.98 11 14 C10.01 14 9.02 14 8 14 C8 13.34 8 12.68 8 12 C4.37 12 0.74 12 -3 12 C-3 11.01 -3 10.02 -3 9 C-2.01 9 -1.02 9 0 9 C0 8.01 0 7.02 0 6 C0.66 6 1.32 6 2 6 C2 5.01 2 4.02 2 3 C0.35 3 -1.3 3 -3 3 C-2.01 2.67 -1.02 2.34 0 2 C0 1.34 0 0.68 0 0 Z " fill="#9CAEA0" transform="translate(168,37)"/>
<path d="M0 0 C0.99 0 1.98 0 3 0 C3 7.59 3 15.18 3 23 C2.01 23 1.02 23 0 23 C0 15.41 0 7.82 0 0 Z " fill="#4B6D55" transform="translate(196,165)"/>
<path d="M0 0 C0.66 0 1.32 0 2 0 C3.21077701 3.63233102 3.12444164 6.95121987 3.09765625 10.73046875 C3.0962413 11.48088943 3.09482635 12.23131012 3.09336853 13.00447083 C3.0877756 15.3988546 3.07522444 17.79314453 3.0625 20.1875 C3.05748408 21.81184761 3.05292134 23.43619668 3.04882812 25.06054688 C3.03780848 29.04040069 3.02054873 33.02018444 3 37 C2.01 37 1.02 37 0 37 C0 33.37 0 29.74 0 26 C0.66 26 1.32 26 2 26 C2 19.4 2 12.8 2 6 C1.34 6 0.68 6 0 6 C0 4.02 0 2.04 0 0 Z " fill="#9AAC9E" transform="translate(202,159)"/>
<path d="M0 0 C1.32 0 2.64 0 4 0 C4 2.97 4 5.94 4 9 C4.66 9 5.32 9 6 9 C6 11.97 6 14.94 6 18 C5.34 18 4.68 18 4 18 C4.020625 19.258125 4.04125 20.51625 4.0625 21.8125 C4.10886083 24.64051087 3.91692961 26.24921116 3 29 C2.01 29 1.02 29 0 29 C0.33 27.02 0.66 25.04 1 23 C1.66 23 2.32 23 3 23 C3 16.4 3 9.8 3 3 C2.01 3 1.02 3 0 3 C0 2.01 0 1.02 0 0 Z " fill="#4D6D54" transform="translate(156,82)"/>
<path d="M0 0 C1.65 0 3.3 0 5 0 C5 0.66 5 1.32 5 2 C5.99 2 6.98 2 8 2 C8 3.98 8 5.96 8 8 C7.01 8 6.02 8 5 8 C5 8.66 5 9.32 5 10 C3.35 10 1.7 10 0 10 C0 6.7 0 3.4 0 0 Z " fill="#F9FBFA" transform="translate(123,69)"/>
<path d="M0 0 C6.6 0 13.2 0 20 0 C20 0.66 20 1.32 20 2 C20.99 2 21.98 2 23 2 C23 2.99 23 3.98 23 5 C23.66 5 24.32 5 25 5 C25 5.99 25 6.98 25 8 C23.35 8 21.7 8 20 8 C20 6.35 20 4.7 20 3 C13.4 2.67 6.8 2.34 0 2 C0 1.34 0 0.68 0 0 Z " fill="#CAD4CD" transform="translate(185,228)"/>
<path d="M0 0 C4.62 0 9.24 0 14 0 C14 0.66 14 1.32 14 2 C15.98 2 17.96 2 20 2 C20 2.99 20 3.98 20 5 C19.01 5 18.02 5 17 5 C17 4.34 17 3.68 17 3 C10.4 3 3.8 3 -3 3 C-3 3.66 -3 4.32 -3 5 C-3.99 5 -4.98 5 -6 5 C-6 4.01 -6 3.02 -6 2 C-4.02 2 -2.04 2 0 2 C0 1.34 0 0.68 0 0 Z " fill="#A9B9AD" transform="translate(205,46)"/>
<path d="M0 0 C0.99 0 1.98 0 3 0 C3 3.63 3 7.26 3 11 C3.99 11.33 4.98 11.66 6 12 C4.35 12 2.7 12 1 12 C1 12.66 1 13.32 1 14 C0.01 14 -0.98 14 -2 14 C-2 10.37 -2 6.74 -2 3 C-1.34 3 -0.68 3 0 3 C0 2.01 0 1.02 0 0 Z " fill="#43654B" transform="translate(190,199)"/>
<path d="M0 0 C5.61 0 11.22 0 17 0 C17 0.99 17 1.98 17 3 C15.02 3 13.04 3 11 3 C11 3.99 11 4.98 11 6 C9.02 6 7.04 6 5 6 C5 5.01 5 4.02 5 3 C4.34 3 3.68 3 3 3 C3 2.34 3 1.68 3 1 C2.01 0.67 1.02 0.34 0 0 Z " fill="#C7D3CB" transform="translate(151,139)"/>
<path d="M0 0 C5.61 0 11.22 0 17 0 C16.01 0.33 15.02 0.66 14 1 C14 1.66 14 2.32 14 3 C12.02 3 10.04 3 8 3 C8 3.99 8 4.98 8 6 C6.02 6 4.04 6 2 6 C2 5.01 2 4.02 2 3 C1.34 3 0.68 3 0 3 C0 2.01 0 1.02 0 0 Z " fill="#54725A" transform="translate(151,122)"/>
<path d="M0 0 C0.66 0 1.32 0 2 0 C2 0.99 2 1.98 2 3 C2.99 3 3.98 3 5 3 C5 4.98 5 6.96 5 9 C4.01 9 3.02 9 2 9 C2 9.99 2 10.98 2 12 C1.01 12 0.02 12 -1 12 C-1 11.01 -1 10.02 -1 9 C-1.66 9 -2.32 9 -3 9 C-3 7.02 -3 5.04 -3 3 C-2.01 3 -1.02 3 0 3 C0 2.01 0 1.02 0 0 Z " fill="#CCD6CE" transform="translate(194,102)"/>
<path d="M0 0 C0.99 0 1.98 0 3 0 C3 6.6 3 13.2 3 20 C2.34 20 1.68 20 1 20 C0.67 20.99 0.34 21.98 0 23 C0 15.41 0 7.82 0 0 Z " fill="#D4DCD6" transform="translate(156,85)"/>
<path d="M0 0 C0.99 0 1.98 0 3 0 C3 2.64 3 5.28 3 8 C2.34 8 1.68 8 1 8 C1 13.61 1 19.22 1 25 C-0.98 25 -2.96 25 -5 25 C-5 24.01 -5 23.02 -5 22 C-3.35 22 -1.7 22 0 22 C0 16.39 0 10.78 0 5 C-0.66 5 -1.32 5 -2 5 C-2 4.01 -2 3.02 -2 2 C-1.34 2 -0.68 2 0 2 C0 1.34 0 0.68 0 0 Z " fill="#DDE3DF" transform="translate(170,174)"/>
<path d="M0 0 C2.64 0 5.28 0 8 0 C8 1.98 8 3.96 8 6 C2.72 6 -2.56 6 -8 6 C-8 6.66 -8 7.32 -8 8 C-7.34 8 -6.68 8 -6 8 C-6 8.99 -6 9.98 -6 11 C-6.99 11 -7.98 11 -9 11 C-9 9.02 -9 7.04 -9 5 C-5.04 5 -1.08 5 3 5 C3 4.34 3 3.68 3 3 C2.01 3 1.02 3 0 3 C0 2.01 0 1.02 0 0 Z " fill="#92A697" transform="translate(151,165)"/>
<path d="M0 0 C6.6 0 13.2 0 20 0 C20 0.99 20 1.98 20 3 C13.4 3 6.8 3 0 3 C0 2.01 0 1.02 0 0 Z " fill="#D1DAD3" transform="translate(105,239)"/>
<path d="M0 0 C0.99 0 1.98 0 3 0 C3 1.98 3 3.96 3 6 C3.99 6 4.98 6 6 6 C6 6.99 6 7.98 6 9 C6.66 9 7.32 9 8 9 C8.33 10.65 8.66 12.3 9 14 C9.66 14 10.32 14 11 14 C11 14.99 11 15.98 11 17 C9.35 17 7.7 17 6 17 C6 15.35 6 13.7 6 12 C5.01 12 4.02 12 3 12 C2.67 9.03 2.34 6.06 2 3 C1.34 3 0.68 3 0 3 C0 2.01 0 1.02 0 0 Z " fill="#C3CEC6" transform="translate(114,193)"/>
<path d="M0 0 C1.98 0 3.96 0 6 0 C6 1.98 6 3.96 6 6 C5.01 6 4.02 6 3 6 C3 8.64 3 11.28 3 14 C2.01 14 1.02 14 0 14 C0 9.38 0 4.76 0 0 Z " fill="#BFCCC2" transform="translate(193,145)"/>
<path d="M0 0 C0.99 0 1.98 0 3 0 C3 6.6 3 13.2 3 20 C2.01 20 1.02 20 0 20 C0 13.4 0 6.8 0 0 Z " fill="#D7DED9" transform="translate(54,97)"/>
<path d="M0 0 C0.99 0 1.98 0 3 0 C3 6.6 3 13.2 3 20 C2.01 20 1.02 20 0 20 C0 13.4 0 6.8 0 0 Z " fill="#738B78" transform="translate(74,85)"/>
<path d="M0 0 C-0.99 0.495 -0.99 0.495 -2 1 C-2 1.66 -2 2.32 -2 3 C-1.34 3 -0.68 3 0 3 C0 3.99 0 4.98 0 6 C-4.62 6 -9.24 6 -14 6 C-14 5.01 -14 4.02 -14 3 C-12.02 3 -10.04 3 -8 3 C-8 2.34 -8 1.68 -8 1 C-5.07175348 0.02391783 -3.04386724 -0.08226668 0 0 Z " fill="#ADBDB1" transform="translate(173,122)"/>
<path d="M0 0 C0.99 0 1.98 0 3 0 C3 0.99 3 1.98 3 3 C2.34 3 1.68 3 1 3 C1 3.99 1 4.98 1 6 C1.66 6 2.32 6 3 6 C3 6.99 3 7.98 3 9 C2.34 9 1.68 9 1 9 C1.020625 10.258125 1.04125 11.51625 1.0625 12.8125 C1.10886083 15.64051087 0.91692961 17.24921116 0 20 C-0.66 20 -1.32 20 -2 20 C-2 18.02 -2 16.04 -2 14 C-1.34 14 -0.68 14 0 14 C0 11.36 0 8.72 0 6 C-0.99 6 -1.98 6 -3 6 C-3 6.66 -3 7.32 -3 8 C-3.66 8 -4.32 8 -5 8 C-5 7.01 -5 6.02 -5 5 C-4.34 5 -3.68 5 -3 5 C-2.67 4.01 -2.34 3.02 -2 2 C-1.34 2 -0.68 2 0 2 C0 1.34 0 0.68 0 0 Z " fill="#A9B9AD" transform="translate(173,168)"/>
<path d="M0 0 C0.99 0 1.98 0 3 0 C3 0.99 3 1.98 3 3 C3.66 3 4.32 3 5 3 C5 5.64 5 8.28 5 11 C3.35 11 1.7 11 0 11 C0 9.35 0 7.7 0 6 C-0.99 6 -1.98 6 -3 6 C-3 5.01 -3 4.02 -3 3 C-2.01 3 -1.02 3 0 3 C0 2.01 0 1.02 0 0 Z " fill="#D5DDD8" transform="translate(185,131)"/>
<path d="M0 0 C0.99 0 1.98 0 3 0 C3 1.98 3 3.96 3 6 C3.99 6 4.98 6 6 6 C6 7.65 6 9.3 6 11 C6.99 11 7.98 11 9 11 C9 11.99 9 12.98 9 14 C10.65 14 12.3 14 14 14 C13.01 14.33 12.02 14.66 11 15 C11 15.66 11 16.32 11 17 C10.01 17 9.02 17 8 17 C8 16.01 8 15.02 8 14 C7.34 14 6.68 14 6 14 C6 13.34 6 12.68 6 12 C4.68 12 3.36 12 2 12 C2 9.03 2 6.06 2 3 C1.34 3 0.68 3 0 3 C0 2.01 0 1.02 0 0 Z " fill="#65806A" transform="translate(60,125)"/>
<path d="M0 0 C2.97 0 5.94 0 9 0 C9 0.66 9 1.32 9 2 C10.98 2 12.96 2 15 2 C15 7.94 15 13.88 15 20 C14.67 20 14.34 20 14 20 C14 14.39 14 8.78 14 3 C7.73 3 1.46 3 -5 3 C-5 2.67 -5 2.34 -5 2 C-3.35 2 -1.7 2 0 2 C0 1.34 0 0.68 0 0 Z " fill="#AFBDB2" transform="translate(122,117)"/>
<path d="M0 0 C0.99 0 1.98 0 3 0 C3 5.94 3 11.88 3 18 C2.01 18.33 1.02 18.66 0 19 C0 12.73 0 6.46 0 0 Z " fill="#395A3F" transform="translate(236,65)"/>
<path d="M0 0 C0.99 0 1.98 0 3 0 C3.33 1.65 3.66 3.3 4 5 C7.3 5.33 10.6 5.66 14 6 C14 6.66 14 7.32 14 8 C8.39 8 2.78 8 -3 8 C-3 7.34 -3 6.68 -3 6 C-2.01 6 -1.02 6 0 6 C0 4.02 0 2.04 0 0 Z " fill="#395B3F" transform="translate(185,219)"/>
<path d="M0 0 C0.99 0 1.98 0 3 0 C3 0.66 3 1.32 3 2 C4.98 2 6.96 2 9 2 C9 2.99 9 3.98 9 5 C8.01 5 7.02 5 6 5 C6 6.98 6 8.96 6 11 C5.01 11 4.02 11 3 11 C3 9.02 3 7.04 3 5 C3.66 5 4.32 5 5 5 C5 4.34 5 3.68 5 3 C2.36 3 -0.28 3 -3 3 C-3 3.66 -3 4.32 -3 5 C-3.99 5 -4.98 5 -6 5 C-6 4.01 -6 3.02 -6 2 C-4.02 2 -2.04 2 0 2 C0 1.34 0 0.68 0 0 Z " fill="#9CAEA0" transform="translate(179,117)"/>
<path d="M0 0 C0.99 0 1.98 0 3 0 C3.33 1.65 3.66 3.3 4 5 C4.66 5 5.32 5 6 5 C6 7.97 6 10.94 6 14 C5.01 14 4.02 14 3 14 C3 10.37 3 6.74 3 3 C0.36 3 -2.28 3 -5 3 C-5 3.66 -5 4.32 -5 5 C-5.99 5 -6.98 5 -8 5 C-8 4.01 -8 3.02 -8 2 C-5.36 2 -2.72 2 0 2 C0 1.34 0 0.68 0 0 Z " fill="#90A495" transform="translate(173,29)"/>
<path d="M0 0 C7.26 0 14.52 0 22 0 C22 0.66 22 1.32 22 2 C11.11 2.495 11.11 2.495 0 3 C0 2.01 0 1.02 0 0 Z " fill="#2E5437" transform="translate(137,40)"/>
<path d="M0 0 C0.99 0 1.98 0 3 0 C3 0.99 3 1.98 3 3 C3.99 3 4.98 3 6 3 C6 3.66 6 4.32 6 5 C2.04 5 -1.92 5 -6 5 C-6 6.32 -6 7.64 -6 9 C-6.99 9 -7.98 9 -9 9 C-9 7.02 -9 5.04 -9 3 C-6.03 3 -3.06 3 0 3 C0 2.01 0 1.02 0 0 Z " fill="#D2DBD4" transform="translate(148,165)"/>
<path d="M0 0 C0.99 0 1.98 0 3 0 C3 0.99 3 1.98 3 3 C2.34 3 1.68 3 1 3 C1 9.6 1 16.2 1 23 C0.67 22.01 0.34 21.02 0 20 C-0.66 20 -1.32 20 -2 20 C-2 16.37 -2 12.74 -2 9 C-1.34 9 -0.68 9 0 9 C0 6.03 0 3.06 0 0 Z " fill="#9EB0A3" transform="translate(99,71)"/>
<path d="M0 0 C0.99 0 1.98 0 3 0 C3 5.61 3 11.22 3 17 C2.01 17 1.02 17 0 17 C0 11.39 0 5.78 0 0 Z " fill="#92A797" transform="translate(196,77)"/>
<path d="M0 0 C0.99 0 1.98 0 3 0 C3 4.62 3 9.24 3 14 C3.66 14 4.32 14 5 14 C5 16.64 5 19.28 5 22 C4.01 22 3.02 22 2 22 C2 16.72 2 11.44 2 6 C1.34 6 0.68 6 0 6 C0 4.02 0 2.04 0 0 Z " fill="#C5D0C7" transform="translate(199,151)"/>
<path d="M0 0 C0.99 0 1.98 0 3 0 C3 1.98 3 3.96 3 6 C3.99 6 4.98 6 6 6 C6 7.98 6 9.96 6 12 C6.66 12 7.32 12 8 12 C8 12.66 8 13.32 8 14 C7.01 14 6.02 14 5 14 C5 12.35 5 10.7 5 9 C4.01 9 3.02 9 2 9 C2 8.01 2 7.02 2 6 C0.35 6 -1.3 6 -3 6 C-3 5.01 -3 4.02 -3 3 C-2.01 3 -1.02 3 0 3 C0 2.01 0 1.02 0 0 Z " fill="#416348" transform="translate(145,236)"/>
<path d="M0 0 C1.98 0 3.96 0 6 0 C6 0.99 6 1.98 6 3 C4.02 3 2.04 3 0 3 C0 3.66 0 4.32 0 5 C-1.98 5 -3.96 5 -6 5 C-6 5.99 -6 6.98 -6 8 C-6.66 8 -7.32 8 -8 8 C-8 6.02 -8 4.04 -8 2 C-5.36 2 -2.72 2 0 2 C0 1.34 0 0.68 0 0 Z " fill="#DCE3DE" transform="translate(159,188)"/>
<path d="M0 0 C2.475 0.495 2.475 0.495 5 1 C5 3.64 5 6.28 5 9 C4.01 9 3.02 9 2 9 C2 9.99 2 10.98 2 12 C1.34 12 0.68 12 0 12 C0 8.04 0 4.08 0 0 Z " fill="#E3E8E4" transform="translate(66,142)"/>
<path d="M0 0 C0.33 0.66 0.66 1.32 1 2 C1.66 2 2.32 2 3 2 C3 2.99 3 3.98 3 5 C3.99 5 4.98 5 6 5 C6 5.99 6 6.98 6 8 C5.01 8 4.02 8 3 8 C3 9.98 3 11.96 3 14 C2.01 14 1.02 14 0 14 C0 9.38 0 4.76 0 0 Z " fill="#5C7963" transform="translate(162,208)"/>
<path d="M0 0 C6.6 0 13.2 0 20 0 C20 1.32 20 2.64 20 4 C19.01 4 18.02 4 17 4 C17 3.34 17 2.68 17 2 C11.39 2 5.78 2 0 2 C0 1.34 0 0.68 0 0 Z " fill="#EDF1EE" transform="translate(142,35)"/>
<path d="M0 0 C0.66 0 1.32 0 2 0 C2 0.66 2 1.32 2 2 C3.98 2 5.96 2 8 2 C8 1.34 8 0.68 8 0 C9.98 0 11.96 0 14 0 C14 0.66 14 1.32 14 2 C14.99 2 15.98 2 17 2 C17 2.99 17 3.98 17 5 C16.01 5 15.02 5 14 5 C14 4.34 14 3.68 14 3 C12.02 3 10.04 3 8 3 C8 3.66 8 4.32 8 5 C7.01 5 6.02 5 5 5 C5 4.34 5 3.68 5 3 C3.35 3 1.7 3 0 3 C0 2.01 0 1.02 0 0 Z " fill="#BFCBC2" transform="translate(80,225)"/>
<path d="M0 0 C6.6 0 13.2 0 20 0 C20 0.99 20 1.98 20 3 C18.02 3 16.04 3 14 3 C14 2.34 14 1.68 14 1 C11.36 1 8.72 1 6 1 C6 1.66 6 2.32 6 3 C4.02 3 2.04 3 0 3 C0 2.01 0 1.02 0 0 Z " fill="#96A99A" transform="translate(91,179)"/>
<path d="M0 0 C0.66 0 1.32 0 2 0 C2 2.97 2 5.94 2 9 C2.99 9 3.98 9 5 9 C5 9.99 5 10.98 5 12 C3.02 12 1.04 12 -1 12 C-1.02687279 10.18757948 -1.04633715 8.37504767 -1.0625 6.5625 C-1.07410156 5.55316406 -1.08570312 4.54382813 -1.09765625 3.50390625 C-1 1 -1 1 0 0 Z " fill="#305436" transform="translate(72,105)"/>
<path d="M0 0 C4.62 0 9.24 0 14 0 C14 0.99 14 1.98 14 3 C9.38 3 4.76 3 0 3 C0 2.01 0 1.02 0 0 Z " fill="#78927F" transform="translate(108,233)"/>
<path d="M0 0 C4.62 0 9.24 0 14 0 C14 0.99 14 1.98 14 3 C9.38 3 4.76 3 0 3 C0 2.01 0 1.02 0 0 Z " fill="#607D67" transform="translate(151,185)"/>
<path d="M0 0 C4.62 0 9.24 0 14 0 C14 0.99 14 1.98 14 3 C9.38 3 4.76 3 0 3 C0 2.01 0 1.02 0 0 Z " fill="#748D7A" transform="translate(94,185)"/>
<path d="M0 0 C4.62 0 9.24 0 14 0 C14 0.99 14 1.98 14 3 C9.38 3 4.76 3 0 3 C0 2.01 0 1.02 0 0 Z " fill="#2D5133" transform="translate(94,176)"/>
<path d="M0 0 C0.99 0 1.98 0 3 0 C3 4.62 3 9.24 3 14 C2.01 14 1.02 14 0 14 C0 9.38 0 4.76 0 0 Z " fill="#A6B7AA" transform="translate(128,94)"/>
<path d="M0 0 C0.99 0 1.98 0 3 0 C3 0.66 3 1.32 3 2 C2.34 2 1.68 2 1 2 C1 5.96 1 9.92 1 14 C0.01 14 -0.98 14 -2 14 C-2 10.04 -2 6.08 -2 2 C-1.34 2 -0.68 2 0 2 C0 1.34 0 0.68 0 0 Z " fill="#6B8671" transform="translate(45,40)"/>
<path d="M0 0 C1.98 0 3.96 0 6 0 C6 6.6 6 13.2 6 20 C5.01 20 4.02 20 3 20 C3 19.01 3 18.02 3 17 C3.66 17 4.32 17 5 17 C5 12.38 5 7.76 5 3 C3.35 3 1.7 3 0 3 C0 2.01 0 1.02 0 0 Z " fill="#B5C3B8" transform="translate(182,199)"/>
<path d="M0 0 C1.98 0 3.96 0 6 0 C6 0.99 6 1.98 6 3 C5.01 3 4.02 3 3 3 C3 3.99 3 4.98 3 6 C2.01 6 1.02 6 0 6 C0 5.01 0 4.02 0 3 C-4.62 3 -9.24 3 -14 3 C-14 2.67 -14 2.34 -14 2 C-9.38 2 -4.76 2 0 2 C0 1.34 0 0.68 0 0 Z " fill="#E5EAE6" transform="translate(108,182)"/>
<path d="M0 0 C0.33 0 0.66 0 1 0 C1 1.65 1 3.3 1 5 C1.66 5 2.32 5 3 5 C3 4.01 3 3.02 3 2 C3.99 2 4.98 2 6 2 C6 1.34 6 0.68 6 0 C6.99 0 7.98 0 9 0 C9 0.99 9 1.98 9 3 C7.35 3 5.7 3 4 3 C3.67 4.65 3.34 6.3 3 8 C1.35 8 -0.3 8 -2 8 C-2 6.35 -2 4.7 -2 3 C-1.34 3 -0.68 3 0 3 C0 2.01 0 1.02 0 0 Z " fill="#46664C" transform="translate(82,188)"/>
<path d="M0 0 C0.99 0 1.98 0 3 0 C3 1.65 3 3.3 3 5 C3.99 5 4.98 5 6 5 C6 6.98 6 8.96 6 11 C6.66 11 7.32 11 8 11 C8 11.99 8 12.98 8 14 C7.01 14 6.02 14 5 14 C5 13.01 5 12.02 5 11 C4.34 11 3.68 11 3 11 C2.67 8.36 2.34 5.72 2 3 C1.34 3 0.68 3 0 3 C0 2.01 0 1.02 0 0 Z " fill="#57755E" transform="translate(91,137)"/>
<path d="M0 0 C1.32 0 2.64 0 4 0 C4 0.99 4 1.98 4 3 C3.01 3 2.02 3 1 3 C1 4.98 1 6.96 1 9 C0.01 9 -0.98 9 -2 9 C-2 8.01 -2 7.02 -2 6 C-2.99 6 -3.98 6 -5 6 C-5 5.01 -5 4.02 -5 3 C-3.35 3 -1.7 3 0 3 C0 2.01 0 1.02 0 0 Z " fill="#A5B6A9" transform="translate(79,216)"/>
<path d="M0 0 C0.66 0 1.32 0 2 0 C2.95261487 4.76307437 3.08333357 9.1666528 3 14 C3.66 14 4.32 14 5 14 C5 14.99 5 15.98 5 17 C4.01 17 3.02 17 2 17 C2 15.02 2 13.04 2 11 C1.34 11 0.68 11 0 11 C0 7.37 0 3.74 0 0 Z " fill="#527058" transform="translate(66,182)"/>
<path d="M0 0 C8.25 0 16.5 0 25 0 C25.33 1.98 25.66 3.96 26 6 C25.01 6 24.02 6 23 6 C23 4.35 23 2.7 23 1 C15.41 1 7.82 1 0 1 C0 0.67 0 0.34 0 0 Z " fill="#2E5235" transform="translate(145,136)"/>
<path d="M0 0 C0.99 0 1.98 0 3 0 C3 1.65 3 3.3 3 5 C2.34 5 1.68 5 1 5 C1 5.99 1 6.98 1 8 C0.01 8 -0.98 8 -2 8 C-2 9.98 -2 11.96 -2 14 C-2.99 14 -3.98 14 -5 14 C-5 13.01 -5 12.02 -5 11 C-4.34 11 -3.68 11 -3 11 C-3 9.02 -3 7.04 -3 5 C-2.01 5 -1.02 5 0 5 C0 3.35 0 1.7 0 0 Z " fill="#59765F" transform="translate(193,97)"/>
<path d="M0 0 C1.98 0 3.96 0 6 0 C6 3.96 6 7.92 6 12 C5.01 12 4.02 12 3 12 C3 8.37 3 4.74 3 1 C2.01 0.67 1.02 0.34 0 0 Z " fill="#9DAEA1" transform="translate(176,79)"/>
<path d="M0 0 C0.99 0 1.98 0 3 0 C3 0.99 3 1.98 3 3 C3.99 3 4.98 3 6 3 C5.67 4.98 5.34 6.96 5 9 C3.35 9 1.7 9 0 9 C0 8.01 0 7.02 0 6 C0.66 6 1.32 6 2 6 C2 5.34 2 4.68 2 4 C1.34 4 0.68 4 0 4 C0 2.68 0 1.36 0 0 Z " fill="#CDD6CF" transform="translate(74,210)"/>
<path d="M0 0 C0.99 0 1.98 0 3 0 C3 0.99 3 1.98 3 3 C1.35 3 -0.3 3 -2 3 C-2 5.64 -2 8.28 -2 11 C-2.99 11 -3.98 11 -5 11 C-5 8.03 -5 5.06 -5 2 C-3.35 2 -1.7 2 0 2 C0 1.34 0 0.68 0 0 Z " fill="#BBC8BE" transform="translate(173,80)"/>
<path d="M0 0 C0.99 0 1.98 0 3 0 C3 1.65 3 3.3 3 5 C4.65 5 6.3 5 8 5 C8 4.34 8 3.68 8 3 C8.99 3 9.98 3 11 3 C11 3.99 11 4.98 11 6 C9.02 6 7.04 6 5 6 C5 6.66 5 7.32 5 8 C4.01 8 3.02 8 2 8 C2 7.34 2 6.68 2 6 C1.34 6 0.68 6 0 6 C0 4.02 0 2.04 0 0 Z " fill="#BFCBC2" transform="translate(120,74)"/>
<path d="M0 0 C0.66 0 1.32 0 2 0 C2.33 1.65 2.66 3.3 3 5 C5.64 5 8.28 5 11 5 C11 5.99 11 6.98 11 8 C8.03 8 5.06 8 2 8 C2 6.35 2 4.7 2 3 C1.34 3 0.68 3 0 3 C0 2.01 0 1.02 0 0 Z " fill="#DFE5E1" transform="translate(151,245)"/>
<path d="M0 0 C2.97 0 5.94 0 9 0 C9 0.99 9 1.98 9 3 C7.68 2.67 6.36 2.34 5 2 C4.67 3.32 4.34 4.64 4 6 C4.66 6 5.32 6 6 6 C6 6.99 6 7.98 6 9 C5.01 9 4.02 9 3 9 C3 7.02 3 5.04 3 3 C2.01 3 1.02 3 0 3 C0 2.01 0 1.02 0 0 Z " fill="#58765E" transform="translate(153,193)"/>
<path d="M0 0 C0.99 0 1.98 0 3 0 C3 1.98 3 3.96 3 6 C3.99 6 4.98 6 6 6 C6 6.99 6 7.98 6 9 C4.02 9 2.04 9 0 9 C0 6.03 0 3.06 0 0 Z " fill="#C5CFC8" transform="translate(74,105)"/>
<path d="M0 0 C0.99 0 1.98 0 3 0 C3 0.99 3 1.98 3 3 C2.34 3 1.68 3 1 3 C1 9.6 1 16.2 1 23 C1.66 23 2.32 23 3 23 C2.67 23.99 2.34 24.98 2 26 C1.34 25.67 0.68 25.34 0 25 C0 16.75 0 8.5 0 0 Z " fill="#3B5E43" transform="translate(48,94)"/>
<path d="M0 0 C3.63 0 7.26 0 11 0 C11 0.99 11 1.98 11 3 C6.38 3 1.76 3 -3 3 C-2.01 2.67 -1.02 2.34 0 2 C0 1.34 0 0.68 0 0 Z " fill="#3A5C41" transform="translate(100,17)"/>
<path d="M0 0 C0.33 0 0.66 0 1 0 C1 1.65 1 3.3 1 5 C2.65 5 4.3 5 6 5 C6 6.32 6 7.64 6 9 C5.01 9 4.02 9 3 9 C3 9.66 3 10.32 3 11 C2.01 11 1.02 11 0 11 C0 7.37 0 3.74 0 0 Z " fill="#3C5E42" transform="translate(119,205)"/>
<path d="M0 0 C0.66 0 1.32 0 2 0 C2 1.98 2 3.96 2 6 C1.34 6 0.68 6 0 6 C0 12.6 0 19.2 0 26 C-0.33 26 -0.66 26 -1 26 C-1.02899599 22.22918278 -1.04679729 18.45839417 -1.0625 14.6875 C-1.07087891 13.61564453 -1.07925781 12.54378906 -1.08789062 11.43945312 C-1.09111328 10.41142578 -1.09433594 9.38339844 -1.09765625 8.32421875 C-1.10289307 7.37635498 -1.10812988 6.42849121 -1.11352539 5.4519043 C-1 3 -1 3 0 0 Z " fill="#E8ECE9" transform="translate(63,162)"/>
<path d="M0 0 C0.99 0 1.98 0 3 0 C3 1.65 3 3.3 3 5 C3.99 5 4.98 5 6 5 C6 6.98 6 8.96 6 11 C6.66 11 7.32 11 8 11 C8 11.99 8 12.98 8 14 C7.01 14 6.02 14 5 14 C5 12.02 5 10.04 5 8 C4.01 8 3.02 8 2 8 C2 6.35 2 4.7 2 3 C1.34 3 0.68 3 0 3 C0 2.01 0 1.02 0 0 Z " fill="#A6B7AA" transform="translate(100,151)"/>
<path d="M0 0 C0.99 0 1.98 0 3 0 C3 1.65 3 3.3 3 5 C3.99 5 4.98 5 6 5 C6 6.98 6 8.96 6 11 C6.66 11 7.32 11 8 11 C8 11.99 8 12.98 8 14 C7.01 14 6.02 14 5 14 C5 12.02 5 10.04 5 8 C4.01 8 3.02 8 2 8 C2 6.35 2 4.7 2 3 C1.34 3 0.68 3 0 3 C0 2.01 0 1.02 0 0 Z " fill="#A3B4A7" transform="translate(80,114)"/>
<path d="M0 0 C0.99 0 1.98 0 3 0 C3 0.99 3 1.98 3 3 C3.99 3 4.98 3 6 3 C6 5.64 6 8.28 6 11 C6.66 11 7.32 11 8 11 C8 11.99 8 12.98 8 14 C7.01 14 6.02 14 5 14 C5 11.36 5 8.72 5 6 C4.01 6 3.02 6 2 6 C2 5.01 2 4.02 2 3 C1.34 3 0.68 3 0 3 C0 2.01 0 1.02 0 0 Z " fill="#B6C3B9" transform="translate(188,57)"/>
<path d="M0 0 C9.24 0 18.48 0 28 0 C28 0.33 28 0.66 28 1 C19.75 1 11.5 1 3 1 C3 1.66 3 2.32 3 3 C2.01 3 1.02 3 0 3 C0 2.01 0 1.02 0 0 Z " fill="#2B5031" transform="translate(131,145)"/>
<path d="M0 0 C0.99 0 1.98 0 3 0 C3 0.66 3 1.32 3 2 C3.99 2 4.98 2 6 2 C6 2.99 6 3.98 6 5 C6.66 5 7.32 5 8 5 C8 5.99 8 6.98 8 8 C6.35 8 4.7 8 3 8 C3 6.35 3 4.7 3 3 C2.01 3 1.02 3 0 3 C0 2.01 0 1.02 0 0 Z " fill="#ADBCB0" transform="translate(202,228)"/>
<path d="M0 0 C0.99 0 1.98 0 3 0 C3 3.63 3 7.26 3 11 C2.01 11 1.02 11 0 11 C0 7.37 0 3.74 0 0 Z " fill="#ACBCB1" transform="translate(142,202)"/>
<path d="M0 0 C0.99 0 1.98 0 3 0 C3 1.98 3 3.96 3 6 C2.34 6 1.68 6 1 6 C1 8.97 1 11.94 1 15 C1.66 15 2.32 15 3 15 C3 15.66 3 16.32 3 17 C2.01 17 1.02 17 0 17 C0 11.39 0 5.78 0 0 Z " fill="#97AA9C" transform="translate(193,193)"/>
<path d="M0 0 C1.65 0 3.3 0 5 0 C5 0.66 5 1.32 5 2 C5.99 2 6.98 2 8 2 C8 2.99 8 3.98 8 5 C7.01 5 6.02 5 5 5 C5 4.34 5 3.68 5 3 C3.35 3 1.7 3 0 3 C0 3.66 0 4.32 0 5 C-0.99 5 -1.98 5 -3 5 C-3 4.01 -3 3.02 -3 2 C-2.01 2 -1.02 2 0 2 C0 1.34 0 0.68 0 0 Z " fill="#46664C" transform="translate(134,197)"/>
<path d="M0 0 C3.63 0 7.26 0 11 0 C11 0.99 11 1.98 11 3 C7.37 3 3.74 3 0 3 C0 2.01 0 1.02 0 0 Z " fill="#A6B7AB" transform="translate(134,142)"/>
<path d="M0 0 C1.98 0 3.96 0 6 0 C6 0.66 6 1.32 6 2 C7.65 2.33 9.3 2.66 11 3 C11 3.99 11 4.98 11 6 C10.01 6 9.02 6 8 6 C8 5.01 8 4.02 8 3 C4.37 3 0.74 3 -3 3 C-2.01 2.67 -1.02 2.34 0 2 C0 1.34 0 0.68 0 0 Z " fill="#B5C3B8" transform="translate(145,77)"/>
<path d="M0 0 C3.63 0 7.26 0 11 0 C11 0.99 11 1.98 11 3 C7.37 3 3.74 3 0 3 C0 2.01 0 1.02 0 0 Z " fill="#4A6A50" transform="translate(57,34)"/>
<path d="M0 0 C1.03125 0.00322266 2.0625 0.00644531 3.125 0.00976562 C4.74535156 0.02233398 4.74535156 0.02233398 6.3984375 0.03515625 C8.03039062 0.04192383 8.03039062 0.04192383 9.6953125 0.04882812 C12.38807539 0.06063849 15.08072938 0.07710847 17.7734375 0.09765625 C17.7734375 0.42765625 17.7734375 0.75765625 17.7734375 1.09765625 C11.1734375 1.09765625 4.5734375 1.09765625 -2.2265625 1.09765625 C-2.2265625 1.75765625 -2.2265625 2.41765625 -2.2265625 3.09765625 C-3.8765625 3.09765625 -5.5265625 3.09765625 -7.2265625 3.09765625 C-7.2265625 2.43765625 -7.2265625 1.77765625 -7.2265625 1.09765625 C-4.66933021 -0.1809599 -2.85919148 -0.01570984 0 0 Z " fill="#CAD4CD" transform="translate(144.2265625,33.90234375)"/>
<path d="M0 0 C0.99 0 1.98 0 3 0 C3 1.65 3 3.3 3 5 C3.99 5 4.98 5 6 5 C6 6.98 6 8.96 6 11 C5.01 11 4.02 11 3 11 C2.67 8.36 2.34 5.72 2 3 C1.34 3 0.68 3 0 3 C0 2.01 0 1.02 0 0 Z " fill="#637F6A" transform="translate(111,174)"/>
<path d="M0 0 C0.99 0 1.98 0 3 0 C3 0.99 3 1.98 3 3 C3.66 3 4.32 3 5 3 C5 4.98 5 6.96 5 9 C4.34 9 3.68 9 3 9 C2.67 10.65 2.34 12.3 2 14 C1.34 14 0.68 14 0 14 C0 13.01 0 12.02 0 11 C0.66 11 1.32 11 2 11 C2 7.7 2 4.4 2 1 C1.34 0.67 0.68 0.34 0 0 Z " fill="#597760" transform="translate(60,142)"/>
<path d="M0 0 C0.99 0 1.98 0 3 0 C3 1.98 3 3.96 3 6 C2.34 6 1.68 6 1 6 C1 8.64 1 11.28 1 14 C0.01 14 -0.98 14 -2 14 C-2 13.01 -2 12.02 -2 11 C-1.34 11 -0.68 11 0 11 C0 7.37 0 3.74 0 0 Z " fill="#BECAC1" transform="translate(54,80)"/>
<path d="M0 0 C2.97 0 5.94 0 9 0 C9 0.99 9 1.98 9 3 C5.37 3 1.74 3 -2 3 C-2.33 3.66 -2.66 4.32 -3 5 C-3 4.01 -3 3.02 -3 2 C-2.01 2 -1.02 2 0 2 C0 1.34 0 0.68 0 0 Z " fill="#718B77" transform="translate(125,43)"/>
<path d="M0 0 C1.98 0 3.96 0 6 0 C6 0.66 6 1.32 6 2 C3.11734851 2.96088383 1.32337729 3.11670941 -1.66796875 3.09765625 C-2.56064453 3.09443359 -3.45332031 3.09121094 -4.37304688 3.08789062 C-5.76620117 3.07532227 -5.76620117 3.07532227 -7.1875 3.0625 C-8.12787109 3.05798828 -9.06824219 3.05347656 -10.03710938 3.04882812 C-12.35813712 3.03704626 -14.67903644 3.02059558 -17 3 C-17 2.67 -17 2.34 -17 2 C-11.39 2 -5.78 2 0 2 C0 1.34 0 0.68 0 0 Z " fill="#CED7D0" transform="translate(162,37)"/>
<path d="M0 0 C3.63 0 7.26 0 11 0 C11 0.66 11 1.32 11 2 C9.02 2 7.04 2 5 2 C5 2.99 5 3.98 5 5 C4.01 5 3.02 5 2 5 C2 4.01 2 3.02 2 2 C1.34 2 0.68 2 0 2 C0 1.34 0 0.68 0 0 Z " fill="#748D7A" transform="translate(154,123)"/>
<path d="M0 0 C1.65 0 3.3 0 5 0 C5 0.99 5 1.98 5 3 C6.98 3 8.96 3 11 3 C11 3.99 11 4.98 11 6 C10.01 6 9.02 6 8 6 C8 5.34 8 4.68 8 4 C7.05125 4.020625 6.1025 4.04125 5.125 4.0625 C2 4 2 4 0 3 C0 2.01 0 1.02 0 0 Z " fill="#C3CEC6" transform="translate(97,230)"/>
<path d="M0 0 C0.99 0 1.98 0 3 0 C3 2.97 3 5.94 3 9 C2.34 9 1.68 9 1 9 C0.67 9.99 0.34 10.98 0 12 C0 8.04 0 4.08 0 0 Z " fill="#4C6C53" transform="translate(139,210)"/>
<path d="M0 0 C0.99 0 1.98 0 3 0 C3 0.66 3 1.32 3 2 C6.63 2 10.26 2 14 2 C14 1.34 14 0.68 14 0 C14.99 0 15.98 0 17 0 C17 0.99 17 1.98 17 3 C11.39 3 5.78 3 0 3 C0 2.01 0 1.02 0 0 Z " fill="#98AB9D" transform="translate(185,239)"/>
<path d="M0 0 C1.98 0 3.96 0 6 0 C6 0.66 6 1.32 6 2 C6.99 2.33 7.98 2.66 9 3 C7.35 3 5.7 3 4 3 C4 3.66 4 4.32 4 5 C2.68 5 1.36 5 0 5 C0 3.35 0 1.7 0 0 Z " fill="#D9E0DB" transform="translate(88,228)"/>
<path d="M0 0 C7.59 0 15.18 0 23 0 C23 0.33 23 0.66 23 1 C17.39 1 11.78 1 6 1 C6 1.66 6 2.32 6 3 C5.01 3 4.02 3 3 3 C3 2.34 3 1.68 3 1 C2.01 0.67 1.02 0.34 0 0 Z " fill="#6C8672" transform="translate(179,227)"/>
<path d="M0 0 C2.64 0 5.28 0 8 0 C7.01 0.495 7.01 0.495 6 1 C6 1.66 6 2.32 6 3 C5.01 3 4.02 3 3 3 C3 3.99 3 4.98 3 6 C2.01 6 1.02 6 0 6 C0 4.02 0 2.04 0 0 Z " fill="#A0B1A4" transform="translate(114,48)"/>
<path d="M0 0 C3.63 0 7.26 0 11 0 C11 0.99 11 1.98 11 3 C8.03 3 5.06 3 2 3 C2 2.34 2 1.68 2 1 C1.34 0.67 0.68 0.34 0 0 Z " fill="#48684E" transform="translate(188,48)"/>
<path d="M0 0 C0.33 0 0.66 0 1 0 C1 6.6 1 13.2 1 20 C1.66 20 2.32 20 3 20 C3 20.99 3 21.98 3 23 C2.01 23 1.02 23 0 23 C0 15.41 0 7.82 0 0 Z " fill="#859B89" transform="translate(68,37)"/>
<path d="M0 0 C3.63 0 7.26 0 11 0 C10.01 0.495 10.01 0.495 9 1 C9 1.66 9 2.32 9 3 C6.03 3 3.06 3 0 3 C0 2.01 0 1.02 0 0 Z " fill="#728C78" transform="translate(128,34)"/>
<path d="M0 0 C0.33 0.66 0.66 1.32 1 2 C6.28 2 11.56 2 17 2 C17 1.34 17 0.68 17 0 C17.99 0 18.98 0 20 0 C20 0.99 20 1.98 20 3 C13.4 3 6.8 3 0 3 C0 2.01 0 1.02 0 0 Z " fill="#A3B4A7" transform="translate(105,239)"/>
<path d="M0 0 C1.65 0 3.3 0 5 0 C5 0.66 5 1.32 5 2 C4.34 2 3.68 2 3 2 C3 2.99 3 3.98 3 5 C1.02 5 -0.96 5 -3 5 C-3 4.01 -3 3.02 -3 2 C-2.01 2 -1.02 2 0 2 C0 1.34 0 0.68 0 0 Z " fill="#718B77" transform="translate(77,134)"/>
<path d="M0 0 C0.99 0 1.98 0 3 0 C3 1.98 3 3.96 3 6 C1.02 6 -0.96 6 -3 6 C-3 5.01 -3 4.02 -3 3 C-2.01 3 -1.02 3 0 3 C0 2.01 0 1.02 0 0 Z " fill="#91A596" transform="translate(182,247)"/>
<path d="M0 0 C0.99 0 1.98 0 3 0 C3 2.97 3 5.94 3 9 C2.01 9 1.02 9 0 9 C0 6.03 0 3.06 0 0 Z " fill="#C9D3CC" transform="translate(182,230)"/>
<path d="M0 0 C0.66 0 1.32 0 2 0 C2 0.66 2 1.32 2 2 C2.99 2 3.98 2 5 2 C5 2.99 5 3.98 5 5 C4.01 5 3.02 5 2 5 C2 4.34 2 3.68 2 3 C1.34 3 0.68 3 0 3 C0 3.66 0 4.32 0 5 C-1.32 5 -2.64 5 -4 5 C-4 4.01 -4 3.02 -4 2 C-2.68 2 -1.36 2 0 2 C0 1.34 0 0.68 0 0 Z " fill="#45664B" transform="translate(140,231)"/>
<path d="M0 0 C0.99 0 1.98 0 3 0 C3 1.98 3 3.96 3 6 C3.66 6 4.32 6 5 6 C5 7.98 5 9.96 5 12 C4.34 12 3.68 12 3 12 C2.67 9.03 2.34 6.06 2 3 C1.34 3 0.68 3 0 3 C0 2.01 0 1.02 0 0 Z " fill="#79917E" transform="translate(114,193)"/>
<path d="M0 0 C0.66 0 1.32 0 2 0 C2 0.99 2 1.98 2 3 C2.99 3 3.98 3 5 3 C5 3.99 5 4.98 5 6 C4.01 6 3.02 6 2 6 C2 6.99 2 7.98 2 9 C1.34 9 0.68 9 0 9 C0 6.03 0 3.06 0 0 Z " fill="#D9E0DA" transform="translate(194,199)"/>
<path d="M0 0 C0.33 0 0.66 0 1 0 C1 6.93 1 13.86 1 21 C0.01 21.33 -0.98 21.66 -2 22 C-2 21.01 -2 20.02 -2 19 C-1.34 19 -0.68 19 0 19 C0 12.73 0 6.46 0 0 Z " fill="#284C2E" transform="translate(207,166)"/>
<path d="M0 0 C0.99 0 1.98 0 3 0 C3 2 3 2 1.625 3.625 C0 5 0 5 -2 5 C-2 6.98 -2 8.96 -2 11 C-2.99 11 -3.98 11 -5 11 C-5 10.01 -5 9.02 -5 8 C-4.34 8 -3.68 8 -3 8 C-3 6.35 -3 4.7 -3 3 C-2.01 2.67 -1.02 2.34 0 2 C0 1.34 0 0.68 0 0 Z " fill="#395C40" transform="translate(170,168)"/>
<path d="M0 0 C2.97 0 5.94 0 9 0 C9 0.99 9 1.98 9 3 C6.03 3 3.06 3 0 3 C0 2.01 0 1.02 0 0 Z " fill="#8CA090" transform="translate(176,165)"/>
<path d="M0 0 C2.97 0 5.94 0 9 0 C9 0.99 9 1.98 9 3 C6.03 3 3.06 3 0 3 C0 2.01 0 1.02 0 0 Z " fill="#7F9684" transform="translate(139,162)"/>
<path d="M0 0 C4.95 0 9.9 0 15 0 C15 0.99 15 1.98 15 3 C14.01 3 13.02 3 12 3 C12 2.34 12 1.68 12 1 C9.03 1 6.06 1 3 1 C3 1.66 3 2.32 3 3 C2.01 3 1.02 3 0 3 C0 2.01 0 1.02 0 0 Z " fill="#66816C" transform="translate(119,116)"/>
<path d="M0 0 C0.99 0 1.98 0 3 0 C3 0.66 3 1.32 3 2 C5.97 2 8.94 2 12 2 C12 1.34 12 0.68 12 0 C12.99 0 13.98 0 15 0 C15 0.99 15 1.98 15 3 C10.05 3 5.1 3 0 3 C0 2.01 0 1.02 0 0 Z " fill="#8EA293" transform="translate(139,111)"/>
<path d="M0 0 C0.99 0 1.98 0 3 0 C3 2.97 3 5.94 3 9 C2.01 9 1.02 9 0 9 C0 6.03 0 3.06 0 0 Z " fill="#809887" transform="translate(71,45)"/>
<path d="M0 0 C0.66 0 1.32 0 2 0 C2 0.99 2 1.98 2 3 C2.99 3 3.98 3 5 3 C5 4.65 5 6.3 5 8 C4.01 8 3.02 8 2 8 C2 7.34 2 6.68 2 6 C1.34 6 0.68 6 0 6 C0 4.02 0 2.04 0 0 Z " fill="#4A6A51" transform="translate(69,37)"/>
<path d="M0 0 C0.66 0 1.32 0 2 0 C2.33 1.98 2.66 3.96 3 6 C3.66 6 4.32 6 5 6 C5 6.99 5 7.98 5 9 C4.34 9 3.68 9 3 9 C2.67 9.66 2.34 10.32 2 11 C2 9.35 2 7.7 2 6 C1.34 6 0.68 6 0 6 C0 4.02 0 2.04 0 0 Z " fill="#627E68" transform="translate(63,202)"/>
<path d="M0 0 C0.99 0 1.98 0 3 0 C3 0.99 3 1.98 3 3 C2.34 3 1.68 3 1 3 C0.67 3.99 0.34 4.98 0 6 C-0.66 6 -1.32 6 -2 6 C-2 6.66 -2 7.32 -2 8 C-2.99 8 -3.98 8 -5 8 C-5 7.34 -5 6.68 -5 6 C-4.34 5.67 -3.68 5.34 -3 5 C-2.67 4.01 -2.34 3.02 -2 2 C-1.34 2 -0.68 2 0 2 C0 1.34 0 0.68 0 0 Z " fill="#D4DCD6" transform="translate(173,205)"/>
<path d="M0 0 C0.33 0 0.66 0 1 0 C1 3.63 1 7.26 1 11 C-0.98 11 -2.96 11 -5 11 C-5 10.01 -5 9.02 -5 8 C-3.35 8 -1.7 8 0 8 C0 5.36 0 2.72 0 0 Z " fill="#899F8F" transform="translate(170,188)"/>
<path d="M0 0 C0.99 0 1.98 0 3 0 C3 0.99 3 1.98 3 3 C2.34 3 1.68 3 1 3 C1 4.65 1 6.3 1 8 C0.01 8 -0.98 8 -2 8 C-2.33 8.99 -2.66 9.98 -3 11 C-3 9.02 -3 7.04 -3 5 C-2.01 5 -1.02 5 0 5 C0 3.35 0 1.7 0 0 Z " fill="#809785" transform="translate(105,60)"/>
<path d="M0 0 C0.99 0 1.98 0 3 0 C3 0.66 3 1.32 3 2 C6.63 2 10.26 2 14 2 C14 2.99 14 3.98 14 5 C13.01 5 12.02 5 11 5 C11 4.34 11 3.68 11 3 C7.37 3 3.74 3 0 3 C0 2.01 0 1.02 0 0 Z " fill="#5F7C66" transform="translate(165,46)"/>
<path d="M0 0 C0.99 0 1.98 0 3 0 C3 1.32 3 2.64 3 4 C3.66 4 4.32 4 5 4 C5 4.66 5 5.32 5 6 C3.35 6 1.7 6 0 6 C0 5.34 0 4.68 0 4 C-0.99 3.67 -1.98 3.34 -3 3 C-2.01 3 -1.02 3 0 3 C0 2.01 0 1.02 0 0 Z " fill="#99AC9E" transform="translate(77,62)"/>
<path d="M0 0 C1.98 0 3.96 0 6 0 C5.01 0.33 4.02 0.66 3 1 C3 1.66 3 2.32 3 3 C2.34 3 1.68 3 1 3 C1 3.99 1 4.98 1 6 C1.66 6 2.32 6 3 6 C3 6.99 3 7.98 3 9 C2.01 9 1.02 9 0 9 C0 6.03 0 3.06 0 0 Z " fill="#BCC9C0" transform="translate(173,227)"/>
<path d="M0 0 C0.99 0 1.98 0 3 0 C3 2.64 3 5.28 3 8 C2.01 8 1.02 8 0 8 C0 5.36 0 2.72 0 0 Z " fill="#A5B5A8" transform="translate(193,151)"/>
<path d="M0 0 C0.99 0 1.98 0 3 0 C3 2.64 3 5.28 3 8 C2.01 8 1.02 8 0 8 C0 5.36 0 2.72 0 0 Z " fill="#3A5D42" transform="translate(128,148)"/>
<path d="M0 0 C0.99 0 1.98 0 3 0 C3 0.99 3 1.98 3 3 C2.34 3 1.68 3 1 3 C0.67 5.64 0.34 8.28 0 11 C-0.66 11 -1.32 11 -2 11 C-2 9.35 -2 7.7 -2 6 C-1.34 6 -0.68 6 0 6 C0 4.02 0 2.04 0 0 Z " fill="#7C9482" transform="translate(68,151)"/>
<path d="M0 0 C0.99 0 1.98 0 3 0 C3 2.97 3 5.94 3 9 C3.66 9 4.32 9 5 9 C5 9.99 5 10.98 5 12 C4.01 12 3.02 12 2 12 C2 9.03 2 6.06 2 3 C1.34 3 0.68 3 0 3 C0 2.01 0 1.02 0 0 Z " fill="#9FB0A3" transform="translate(60,125)"/>
<path d="M0 0 C0.99 0 1.98 0 3 0 C3 2.64 3 5.28 3 8 C2.01 8 1.02 8 0 8 C0 5.36 0 2.72 0 0 Z " fill="#ECF0ED" transform="translate(77,91)"/>
<path d="M0 0 C0 0.99 0 1.98 0 3 C-0.66 3 -1.32 3 -2 3 C-2.33 3.99 -2.66 4.98 -3 6 C-3.66 6 -4.32 6 -5 6 C-5 6.66 -5 7.32 -5 8 C-5.99 8 -6.98 8 -8 8 C-8 7.01 -8 6.02 -8 5 C-7.01 5 -6.02 5 -5 5 C-5 4.34 -5 3.68 -5 3 C-2.46153846 0 -2.46153846 0 0 0 Z " fill="#A3B4A6" transform="translate(142,80)"/>
<path d="M0 0 C1.65 0 3.3 0 5 0 C5 0.66 5 1.32 5 2 C5.99 2 6.98 2 8 2 C8 2.99 8 3.98 8 5 C7.01 5 6.02 5 5 5 C5 4.34 5 3.68 5 3 C3.35 3 1.7 3 0 3 C0 2.01 0 1.02 0 0 Z " fill="#34583A" transform="translate(66,80)"/>
<path d="M0 0 C0.99 0 1.98 0 3 0 C3 2.64 3 5.28 3 8 C2.01 8 1.02 8 0 8 C0 5.36 0 2.72 0 0 Z " fill="#BDC9C0" transform="translate(233,77)"/>
<path d="M0 0 C0.99 0 1.98 0 3 0 C3 2.64 3 5.28 3 8 C2.01 8 1.02 8 0 8 C0 5.36 0 2.72 0 0 Z " fill="#9DAFA2" transform="translate(233,60)"/>
<path d="M0 0 C1.98 0 3.96 0 6 0 C6 1.65 6 3.3 6 5 C5.01 5 4.02 5 3 5 C3 4.34 3 3.68 3 3 C2.01 3 1.02 3 0 3 C0 2.01 0 1.02 0 0 Z " fill="#66826C" transform="translate(71,60)"/>
<path d="M0 0 C2.64 0 5.28 0 8 0 C8 0.99 8 1.98 8 3 C5.36 3 2.72 3 0 3 C0 2.01 0 1.02 0 0 Z " fill="#5F7C66" transform="translate(137,40)"/>
<path d="M0 0 C2.64 0 5.28 0 8 0 C8 1.98 8 3.96 8 6 C7.34 6 6.68 6 6 6 C5.67 4.35 5.34 2.7 5 1 C4.01 1 3.02 1 2 1 C2 1.66 2 2.32 2 3 C1.34 3 0.68 3 0 3 C0 2.01 0 1.02 0 0 Z " fill="#45664C" transform="translate(171,28)"/>
<path d="M0 0 C0.33 0.66 0.66 1.32 1 2 C1.66 2 2.32 2 3 2 C3 1.34 3 0.68 3 0 C3.99 0 4.98 0 6 0 C6 0.99 6 1.98 6 3 C5.01 3 4.02 3 3 3 C3 3.99 3 4.98 3 6 C2.01 6 1.02 6 0 6 C0 4.02 0 2.04 0 0 Z " fill="#66826D" transform="translate(179,239)"/>
<path d="M0 0 C0.66 0 1.32 0 2 0 C2 1.98 2 3.96 2 6 C1.34 6 0.68 6 0 6 C-0.33 6.99 -0.66 7.98 -1 9 C-1.66 9 -2.32 9 -3 9 C-3 8.01 -3 7.02 -3 6 C-2.34 6 -1.68 6 -1 6 C-0.67 4.02 -0.34 2.04 0 0 Z " fill="#DAE1DB" transform="translate(140,219)"/>
<path d="M0 0 C3.63 0 7.26 0 11 0 C11 0.99 11 1.98 11 3 C10.01 3 9.02 3 8 3 C8 2.34 8 1.68 8 1 C6.35 1 4.7 1 3 1 C3 1.66 3 2.32 3 3 C2.01 3 1.02 3 0 3 C0 2.01 0 1.02 0 0 Z " fill="#B1C0B5" transform="translate(131,196)"/>
<path d="M0 0 C0.99 0 1.98 0 3 0 C3 0.99 3 1.98 3 3 C3.66 3 4.32 3 5 3 C5 3.99 5 4.98 5 6 C4.34 6 3.68 6 3 6 C3 7.65 3 9.3 3 11 C2.67 11 2.34 11 2 11 C2 8.36 2 5.72 2 3 C1.34 3 0.68 3 0 3 C0 2.01 0 1.02 0 0 Z " fill="#D1D9D3" transform="translate(63,151)"/>
<path d="M0 0 C5.61 0 11.22 0 17 0 C17 0.99 17 1.98 17 3 C16.01 3 15.02 3 14 3 C14 2.34 14 1.68 14 1 C9.38 1 4.76 1 0 1 C0 0.67 0 0.34 0 0 Z " fill="#829988" transform="translate(151,139)"/>
<path d="M0 0 C5.61 0 11.22 0 17 0 C17 0.33 17 0.66 17 1 C12.38 1 7.76 1 3 1 C3 1.66 3 2.32 3 3 C2.01 3 1.02 3 0 3 C0 2.01 0 1.02 0 0 Z " fill="#728B77" transform="translate(199,102)"/>
<path d="M0 0 C0.99 0 1.98 0 3 0 C3 0.99 3 1.98 3 3 C-2.61 3 -8.22 3 -14 3 C-14 2.67 -14 2.34 -14 2 C-9.38 2 -4.76 2 0 2 C0 1.34 0 0.68 0 0 Z " fill="#274D2F" transform="translate(159,40)"/>
<path d="M0 0 C1.98 0 3.96 0 6 0 C6 1.65 6 3.3 6 5 C5.34 5 4.68 5 4 5 C4 4.34 4 3.68 4 3 C2.68 3 1.36 3 0 3 C0 2.01 0 1.02 0 0 Z " fill="#527058" transform="translate(176,236)"/>
<path d="M0 0 C0.99 0 1.98 0 3 0 C3 1.98 3 3.96 3 6 C1.68 6 0.36 6 -1 6 C-0.67 4.02 -0.34 2.04 0 0 Z " fill="#BAC7BD" transform="translate(117,182)"/>
<path d="M0 0 C0.99 0 1.98 0 3 0 C2.67 2.97 2.34 5.94 2 9 C1.34 9 0.68 9 0 9 C0 6.03 0 3.06 0 0 Z " fill="#829987" transform="translate(57,162)"/>
<path d="M0 0 C2.475 0.495 2.475 0.495 5 1 C5 2.65 5 4.3 5 6 C4.01 6 3.02 6 2 6 C2 5.01 2 4.02 2 3 C1.34 3 0.68 3 0 3 C0 2.01 0 1.02 0 0 Z " fill="#FAFAFA" transform="translate(66,142)"/>
<path d="M0 0 C0.99 0 1.98 0 3 0 C3 1.98 3 3.96 3 6 C3.66 6 4.32 6 5 6 C5 6.99 5 7.98 5 9 C4.01 9 3.02 9 2 9 C2 7.02 2 5.04 2 3 C1.34 3 0.68 3 0 3 C0 2.01 0 1.02 0 0 Z " fill="#C6D1C9" transform="translate(57,122)"/>
<path d="M0 0 C0.33 0 0.66 0 1 0 C1.02712066 1.43739513 1.04645067 2.87493863 1.0625 4.3125 C1.07410156 5.11300781 1.08570312 5.91351563 1.09765625 6.73828125 C1 9 1 9 0 12 C-0.66 12 -1.32 12 -2 12 C-2 10.02 -2 8.04 -2 6 C-1.34 6 -0.68 6 0 6 C0 4.02 0 2.04 0 0 Z " fill="#718C78" transform="translate(116,119)"/>
<path d="M0 0 C0.33 0.99 0.66 1.98 1 3 C1.66 3 2.32 3 3 3 C3 4.65 3 6.3 3 8 C2.34 8 1.68 8 1 8 C0.67 8.99 0.34 9.98 0 11 C0 7.37 0 3.74 0 0 Z " fill="#C0CCC2" transform="translate(156,97)"/>
<path d="M0 0 C0.99 0 1.98 0 3 0 C3 0.99 3 1.98 3 3 C2.01 3 1.02 3 0 3 C0 4.65 0 6.3 0 8 C-0.99 8 -1.98 8 -3 8 C-3 7.01 -3 6.02 -3 5 C-2.34 5 -1.68 5 -1 5 C-0.67 3.35 -0.34 1.7 0 0 Z " fill="#97AA9C" transform="translate(63,80)"/>
<path d="M0 0 C0.99 0 1.98 0 3 0 C3 0.66 3 1.32 3 2 C3.99 2 4.98 2 6 2 C6 1.34 6 0.68 6 0 C6.99 0 7.98 0 9 0 C9 0.99 9 1.98 9 3 C6.03 3 3.06 3 0 3 C0 2.01 0 1.02 0 0 Z " fill="#5E7A64" transform="translate(119,80)"/>
<path d="M0 0 C0.66 0 1.32 0 2 0 C2 1.98 2 3.96 2 6 C1.34 6 0.68 6 0 6 C0 7.98 0 9.96 0 12 C-0.33 12 -0.66 12 -1 12 C-1.02712066 10.56260487 -1.04645067 9.12506137 -1.0625 7.6875 C-1.07410156 6.88699219 -1.08570312 6.08648437 -1.09765625 5.26171875 C-1 3 -1 3 0 0 Z " fill="#97AA9B" transform="translate(120,68)"/>
<path d="M0 0 C2.97 0 5.94 0 9 0 C9 0.66 9 1.32 9 2 C4.545 2.495 4.545 2.495 0 3 C0 2.01 0 1.02 0 0 Z " fill="#98AB9C" transform="translate(91,20)"/>
<path d="M0 0 C0.33 0 0.66 0 1 0 C1 4.62 1 9.24 1 14 C0.01 14 -0.98 14 -2 14 C-2 13.01 -2 12.02 -2 11 C-1.34 11 -0.68 11 0 11 C0 7.37 0 3.74 0 0 Z " fill="#43644A" transform="translate(113,128)"/>
<path d="M0 0 C0.99 0 1.98 0 3 0 C3 0.66 3 1.32 3 2 C3.66 2 4.32 2 5 2 C5 1.34 5 0.68 5 0 C5.99 0 6.98 0 8 0 C8 0.99 8 1.98 8 3 C5.36 3 2.72 3 0 3 C0 2.01 0 1.02 0 0 Z " fill="#C4CFC6" transform="translate(171,91)"/>
<path d="M0 0 C0.99 0 1.98 0 3 0 C3 0.99 3 1.98 3 3 C2.34 3 1.68 3 1 3 C1 6.63 1 10.26 1 14 C0.67 14 0.34 14 0 14 C0 9.38 0 4.76 0 0 Z " fill="#E3E8E4" transform="translate(96,77)"/>
<path d="M0 0 C4.62 0 9.24 0 14 0 C14 0.33 14 0.66 14 1 C10.37 1 6.74 1 3 1 C3 1.66 3 2.32 3 3 C2.01 3 1.02 3 0 3 C0 2.01 0 1.02 0 0 Z " fill="#56745D" transform="translate(202,45)"/>
<path d="M0 0 C0.99 0 1.98 0 3 0 C3 0.99 3 1.98 3 3 C1.35 3 -0.3 3 -2 3 C-2 3.66 -2 4.32 -2 5 C-2.99 5 -3.98 5 -5 5 C-5 4.01 -5 3.02 -5 2 C-3.35 2 -1.7 2 0 2 C0 1.34 0 0.68 0 0 Z " fill="#4F6E55" transform="translate(85,23)"/>
<path d="M0 0 C0.33 0.99 0.66 1.98 1 3 C1.66 3 2.32 3 3 3 C3 3.66 3 4.32 3 5 C2.01 5 1.02 5 0 5 C0 5.99 0 6.98 0 8 C-0.66 8 -1.32 8 -2 8 C-2 6.35 -2 4.7 -2 3 C-1.34 3 -0.68 3 0 3 C0 2.01 0 1.02 0 0 Z " fill="#ADBCB1" transform="translate(85,185)"/>
<path d="M0 0 C-0.99 0.33 -1.98 0.66 -3 1 C-3 1.66 -3 2.32 -3 3 C-4.98 3 -6.96 3 -9 3 C-9 2.34 -9 1.68 -9 1 C-5.8035914 -0.06546953 -3.34252724 -0.07427838 0 0 Z " fill="#4E6C53" transform="translate(182,253)"/>
<path d="M0 0 C0.66 0 1.32 0 2 0 C2.33 1.65 2.66 3.3 3 5 C3.66 5 4.32 5 5 5 C5 5.99 5 6.98 5 8 C4.01 8 3.02 8 2 8 C2 6.35 2 4.7 2 3 C1.34 3 0.68 3 0 3 C0 2.01 0 1.02 0 0 Z " fill="#9CAE9F" transform="translate(151,245)"/>
<path d="M0 0 C0.99 0 1.98 0 3 0 C3 1.98 3 3.96 3 6 C3.66 6 4.32 6 5 6 C5 6.66 5 7.32 5 8 C4.01 8 3.02 8 2 8 C2 6.35 2 4.7 2 3 C1.34 3 0.68 3 0 3 C0 2.01 0 1.02 0 0 Z " fill="#607C66" transform="translate(148,242)"/>
<path d="M0 0 C1.98 0 3.96 0 6 0 C6 0.99 6 1.98 6 3 C4.02 3 2.04 3 0 3 C0 2.01 0 1.02 0 0 Z " fill="#8DA192" transform="translate(128,236)"/>
<path d="M0 0 C0.99 0 1.98 0 3 0 C3 0.66 3 1.32 3 2 C3.99 2 4.98 2 6 2 C6 2.99 6 3.98 6 5 C5.01 5 4.02 5 3 5 C3 4.34 3 3.68 3 3 C2.01 3 1.02 3 0 3 C0 2.01 0 1.02 0 0 Z " fill="#79917F" transform="translate(91,225)"/>
<path d="M0 0 C0.99 0 1.98 0 3 0 C3 1.98 3 3.96 3 6 C2.01 6 1.02 6 0 6 C0 4.02 0 2.04 0 0 Z " fill="#C0CCC3" transform="translate(165,216)"/>
<path d="M0 0 C0.99 0 1.98 0 3 0 C3 1.98 3 3.96 3 6 C2.01 6 1.02 6 0 6 C0 4.02 0 2.04 0 0 Z " fill="#ACBCAF" transform="translate(159,205)"/>
<path d="M0 0 C0.99 0 1.98 0 3 0 C3 1.98 3 3.96 3 6 C2.01 6 1.02 6 0 6 C0 4.02 0 2.04 0 0 Z " fill="#58755E" transform="translate(199,199)"/>
<path d="M0 0 C1.98 0 3.96 0 6 0 C6 0.99 6 1.98 6 3 C4.02 3 2.04 3 0 3 C0 2.01 0 1.02 0 0 Z " fill="#D9E0DB" transform="translate(176,202)"/>
<path d="M0 0 C1.98 0 3.96 0 6 0 C6 0.99 6 1.98 6 3 C4.02 3 2.04 3 0 3 C0 2.01 0 1.02 0 0 Z " fill="#879D8D" transform="translate(182,199)"/>
<path d="M0 0 C0.33 0 0.66 0 1 0 C1 2.64 1 5.28 1 8 C0.01 8 -0.98 8 -2 8 C-2 6.35 -2 4.7 -2 3 C-1.34 3 -0.68 3 0 3 C0 2.01 0 1.02 0 0 Z " fill="#57755E" transform="translate(204,188)"/>
<path d="M0 0 C1.65 0 3.3 0 5 0 C5 0.66 5 1.32 5 2 C5.99 2.33 6.98 2.66 8 3 C5.36 3 2.72 3 0 3 C0 2.01 0 1.02 0 0 Z " fill="#99AC9E" transform="translate(151,185)"/>
<path d="M0 0 C0.99 0 1.98 0 3 0 C3 1.98 3 3.96 3 6 C2.01 6 1.02 6 0 6 C0 4.02 0 2.04 0 0 Z " fill="#6A8570" transform="translate(57,185)"/>
<path d="M0 0 C0.33 0 0.66 0 1 0 C0.67 2.97 0.34 5.94 0 9 C-0.66 9 -1.32 9 -2 9 C-2 7.02 -2 5.04 -2 3 C-1.34 3 -0.68 3 0 3 C0 2.01 0 1.02 0 0 Z " fill="#6B8671" transform="translate(173,179)"/>
<path d="M0 0 C0.99 0 1.98 0 3 0 C3 1.98 3 3.96 3 6 C2.01 6 1.02 6 0 6 C0 4.02 0 2.04 0 0 Z " fill="#839A89" transform="translate(196,182)"/>
<path d="M0 0 C0.99 0 1.98 0 3 0 C3 1.98 3 3.96 3 6 C2.01 6 1.02 6 0 6 C0 4.02 0 2.04 0 0 Z " fill="#B6C3B8" transform="translate(145,179)"/>
<path d="M0 0 C0.99 0 1.98 0 3 0 C3 1.32 3 2.64 3 4 C2.34 4 1.68 4 1 4 C1 4.66 1 5.32 1 6 C0.01 6 -0.98 6 -2 6 C-2 5.34 -2 4.68 -2 4 C-1.34 4 -0.68 4 0 4 C0 2.68 0 1.36 0 0 Z " fill="#5E7B65" transform="translate(176,173)"/>
<path d="M0 0 C0.99 0 1.98 0 3 0 C3 1.98 3 3.96 3 6 C2.01 6 1.02 6 0 6 C0 4.02 0 2.04 0 0 Z " fill="#4F6D55" transform="translate(108,168)"/>
<path d="M0 0 C0.99 0 1.98 0 3 0 C3 1.98 3 3.96 3 6 C2.01 6 1.02 6 0 6 C0 4.02 0 2.04 0 0 Z " fill="#809886" transform="translate(196,165)"/>
<path d="M0 0 C0.99 0 1.98 0 3 0 C3 1.98 3 3.96 3 6 C2.01 6 1.02 6 0 6 C0 4.02 0 2.04 0 0 Z " fill="#68846E" transform="translate(156,165)"/>
<path d="M0 0 C0.66 0 1.32 0 2 0 C2.33 2.97 2.66 5.94 3 9 C2.67 8.01 2.34 7.02 2 6 C1.34 6 0.68 6 0 6 C0 4.02 0 2.04 0 0 Z " fill="#879C8B" transform="translate(202,159)"/>
<path d="M0 0 C0.99 0 1.98 0 3 0 C3 1.98 3 3.96 3 6 C2.01 6 1.02 6 0 6 C0 4.02 0 2.04 0 0 Z " fill="#34593C" transform="translate(193,159)"/>
<path d="M0 0 C0.99 0 1.98 0 3 0 C3 1.98 3 3.96 3 6 C2.01 6 1.02 6 0 6 C0 4.02 0 2.04 0 0 Z " fill="#CED8D1" transform="translate(125,148)"/>
<path d="M0 0 C0.99 0 1.98 0 3 0 C3 1.98 3 3.96 3 6 C2.01 6 1.02 6 0 6 C0 4.02 0 2.04 0 0 Z " fill="#F2F4F2" transform="translate(193,145)"/>
<path d="M0 0 C0.99 0 1.98 0 3 0 C3 0.99 3 1.98 3 3 C3.66 3 4.32 3 5 3 C5 3.99 5 4.98 5 6 C4.01 6 3.02 6 2 6 C2 5.01 2 4.02 2 3 C1.34 3 0.68 3 0 3 C0 2.01 0 1.02 0 0 Z " fill="#45654B" transform="translate(94,145)"/>
<path d="M0 0 C1.98 0 3.96 0 6 0 C6 0.99 6 1.98 6 3 C4.02 3 2.04 3 0 3 C0 2.01 0 1.02 0 0 Z " fill="#8AA190" transform="translate(156,142)"/>
<path d="M0 0 C0.99 0 1.98 0 3 0 C3 1.98 3 3.96 3 6 C2.01 6 1.02 6 0 6 C0 4.02 0 2.04 0 0 Z " fill="#4B6B52" transform="translate(88,131)"/>
<path d="M0 0 C0.99 0 1.98 0 3 0 C3 1.98 3 3.96 3 6 C2.01 6 1.02 6 0 6 C0 4.02 0 2.04 0 0 Z " fill="#65806B" transform="translate(54,131)"/>
<path d="M0 0 C0.99 0 1.98 0 3 0 C3 1.98 3 3.96 3 6 C2.01 6 1.02 6 0 6 C0 4.02 0 2.04 0 0 Z " fill="#4A6A51" transform="translate(51,125)"/>
<path d="M0 0 C0.99 0 1.98 0 3 0 C3 1.98 3 3.96 3 6 C2.01 6 1.02 6 0 6 C0 4.02 0 2.04 0 0 Z " fill="#284E2F" transform="translate(142,122)"/>
<path d="M0 0 C0.99 0 1.98 0 3 0 C3 0.99 3 1.98 3 3 C2.01 3 1.02 3 0 3 C0 3.66 0 4.32 0 5 C-0.99 5 -1.98 5 -3 5 C-3 4.01 -3 3.02 -3 2 C-2.01 2 -1.02 2 0 2 C0 1.34 0 0.68 0 0 Z " fill="#CFD8D2" transform="translate(190,114)"/>
<path d="M0 0 C1.98 0 3.96 0 6 0 C6 0.99 6 1.98 6 3 C4.02 3 2.04 3 0 3 C0 2.01 0 1.02 0 0 Z " fill="#68846F" transform="translate(71,114)"/>
<path d="M0 0 C0.99 0 1.98 0 3 0 C3 1.98 3 3.96 3 6 C2.01 6 1.02 6 0 6 C0 4.02 0 2.04 0 0 Z " fill="#A0B2A5" transform="translate(105,105)"/>
<path d="M0 0 C0.99 0 1.98 0 3 0 C3 1.98 3 3.96 3 6 C2.01 6 1.02 6 0 6 C0 4.02 0 2.04 0 0 Z " fill="#B4C3B8" transform="translate(74,105)"/>
<path d="M0 0 C0.99 0 1.98 0 3 0 C3 1.65 3 3.3 3 5 C2.34 5 1.68 5 1 5 C0.67 5.99 0.34 6.98 0 8 C0 5.36 0 2.72 0 0 Z " fill="#889D8C" transform="translate(193,97)"/>
<path d="M0 0 C0.99 0 1.98 0 3 0 C3 1.98 3 3.96 3 6 C2.01 6 1.02 6 0 6 C0 4.02 0 2.04 0 0 Z " fill="#34563A" transform="translate(125,99)"/>
<path d="M0 0 C0.99 0 1.98 0 3 0 C3 1.98 3 3.96 3 6 C2.01 6 1.02 6 0 6 C0 4.02 0 2.04 0 0 Z " fill="#8EA393" transform="translate(128,94)"/>
<path d="M0 0 C0.99 0 1.98 0 3 0 C3 1.98 3 3.96 3 6 C2.01 6 1.02 6 0 6 C0 4.02 0 2.04 0 0 Z " fill="#D7DED9" transform="translate(131,91)"/>
<path d="M0 0 C0.99 0 1.98 0 3 0 C3 1.98 3 3.96 3 6 C2.01 6 1.02 6 0 6 C0 4.02 0 2.04 0 0 Z " fill="#98AC9D" transform="translate(57,88)"/>
<path d="M0 0 C2.64 0 5.28 0 8 0 C7.01 0.33 6.02 0.66 5 1 C5 1.66 5 2.32 5 3 C3.35 3 1.7 3 0 3 C0 2.01 0 1.02 0 0 Z " fill="#506F57" transform="translate(168,79)"/>
<path d="M0 0 C0.99 0 1.98 0 3 0 C3 1.98 3 3.96 3 6 C2.01 6 1.02 6 0 6 C0 4.02 0 2.04 0 0 Z " fill="#A2B3A6" transform="translate(57,74)"/>
<path d="M0 0 C0.99 0 1.98 0 3 0 C3 1.98 3 3.96 3 6 C2.01 6 1.02 6 0 6 C0 4.02 0 2.04 0 0 Z " fill="#3E6146" transform="translate(193,71)"/>
<path d="M0 0 C0.99 0 1.98 0 3 0 C3 1.98 3 3.96 3 6 C2.01 6 1.02 6 0 6 C0 4.02 0 2.04 0 0 Z " fill="#8BA090" transform="translate(131,71)"/>
<path d="M0 0 C0.99 0 1.98 0 3 0 C3 1.98 3 3.96 3 6 C2.01 6 1.02 6 0 6 C0 4.02 0 2.04 0 0 Z " fill="#57755E" transform="translate(54,68)"/>
<path d="M0 0 C1.98 0 3.96 0 6 0 C6 0.99 6 1.98 6 3 C4.02 3 2.04 3 0 3 C0 2.01 0 1.02 0 0 Z " fill="#B3C1B6" transform="translate(122,65)"/>
<path d="M0 0 C0.99 0 1.98 0 3 0 C3 1.98 3 3.96 3 6 C2.01 6 1.02 6 0 6 C0 4.02 0 2.04 0 0 Z " fill="#D5DDD7" transform="translate(230,57)"/>
<path d="M0 0 C1.98 0 3.96 0 6 0 C6 0.99 6 1.98 6 3 C4.02 3 2.04 3 0 3 C0 2.01 0 1.02 0 0 Z " fill="#365A3E" transform="translate(122,62)"/>
<path d="M0 0 C0.99 0 1.98 0 3 0 C3 1.98 3 3.96 3 6 C2.01 6 1.02 6 0 6 C0 4.02 0 2.04 0 0 Z " fill="#48684E" transform="translate(108,57)"/>
<path d="M0 0 C1.98 0 3.96 0 6 0 C6 0.99 6 1.98 6 3 C4.02 3 2.04 3 0 3 C0 2.01 0 1.02 0 0 Z " fill="#B0BFB3" transform="translate(190,51)"/>
<path d="M0 0 C0.99 0 1.98 0 3 0 C3 1.98 3 3.96 3 6 C2.01 6 1.02 6 0 6 C0 4.02 0 2.04 0 0 Z " fill="#BBC7BD" transform="translate(176,37)"/>
<path d="M0 0 C0.99 0 1.98 0 3 0 C3 1.98 3 3.96 3 6 C2.01 6 1.02 6 0 6 C0 4.02 0 2.04 0 0 Z " fill="#CCD6CE" transform="translate(74,37)"/>
<path d="M0 0 C1.98 0 3.96 0 6 0 C6 0.99 6 1.98 6 3 C4.02 3 2.04 3 0 3 C0 2.01 0 1.02 0 0 Z " fill="#A5B6A9" transform="translate(51,37)"/>
<path d="M0 0 C0.99 0 1.98 0 3 0 C3 1.98 3 3.96 3 6 C2.01 6 1.02 6 0 6 C0 4.02 0 2.04 0 0 Z " fill="#BAC7BD" transform="translate(125,31)"/>
<path d="M0 0 C0.99 0 1.98 0 3 0 C3 1.98 3 3.96 3 6 C2.01 6 1.02 6 0 6 C0 4.02 0 2.04 0 0 Z " fill="#B9C5BC" transform="translate(77,31)"/>
<path d="M0 0 C0.99 0 1.98 0 3 0 C3 0.66 3 1.32 3 2 C3.99 2 4.98 2 6 2 C6 2.99 6 3.98 6 5 C5.01 5 4.02 5 3 5 C3 4.34 3 3.68 3 3 C2.01 3 1.02 3 0 3 C0 2.01 0 1.02 0 0 Z " fill="#CED7D1" transform="translate(119,26)"/>
<path d="M0 0 C2.64 0.33 5.28 0.66 8 1 C8 1.66 8 2.32 8 3 C6.02 3 4.04 3 2 3 C2 2.34 2 1.68 2 1 C1.34 0.67 0.68 0.34 0 0 Z " fill="#46664C" transform="translate(154,253)"/>
<path d="M0 0 C0.33 0 0.66 0 1 0 C1 1.65 1 3.3 1 5 C2.65 5 4.3 5 6 5 C5.01 5.33 4.02 5.66 3 6 C3 6.66 3 7.32 3 8 C2.01 8 1.02 8 0 8 C0 5.36 0 2.72 0 0 Z " fill="#758E7A" transform="translate(119,205)"/>
<path d="M0 0 C0.99 0 1.98 0 3 0 C3 0.66 3 1.32 3 2 C2.34 2 1.68 2 1 2 C0.67 3.32 0.34 4.64 0 6 C-0.66 6 -1.32 6 -2 6 C-2 4.68 -2 3.36 -2 2 C-1.34 2 -0.68 2 0 2 C0 1.34 0 0.68 0 0 Z " fill="#66816B" transform="translate(170,205)"/>
<path d="M0 0 C2.97 0 5.94 0 9 0 C9 0.99 9 1.98 9 3 C8.01 3 7.02 3 6 3 C6 2.34 6 1.68 6 1 C4.35 1 2.7 1 1 1 C0.67 1.66 0.34 2.32 0 3 C0 2.01 0 1.02 0 0 Z " fill="#7D9582" transform="translate(153,193)"/>
<path d="M0 0 C0.33 0 0.66 0 1 0 C1.36923077 5.53846154 1.36923077 5.53846154 -0.5 7.875 C-1.2425 8.431875 -1.2425 8.431875 -2 9 C-2 7.02 -2 5.04 -2 3 C-1.34 3 -0.68 3 0 3 C0 2.01 0 1.02 0 0 Z " fill="#375A3E" transform="translate(173,185)"/>
<path d="M0 0 C3.63 0 7.26 0 11 0 C11 0.99 11 1.98 11 3 C10.01 3 9.02 3 8 3 C8 2.34 8 1.68 8 1 C5.36 1 2.72 1 0 1 C0 0.67 0 0.34 0 0 Z " fill="#274B2D" transform="translate(97,176)"/>
<path d="M0 0 C0.33 0.99 0.66 1.98 1 3 C-0.98 3 -2.96 3 -5 3 C-5 3.66 -5 4.32 -5 5 C-5.99 5 -6.98 5 -8 5 C-8 4.01 -8 3.02 -8 2 C-5.36 2 -2.72 2 0 2 C0 1.34 0 0.68 0 0 Z " fill="#8FA394" transform="translate(187,168)"/>
<path d="M0 0 C0.99 0 1.98 0 3 0 C3 1.98 3 3.96 3 6 C2.01 5.67 1.02 5.34 0 5 C0.66 5 1.32 5 2 5 C2 4.34 2 3.68 2 3 C0.35 3 -1.3 3 -3 3 C-2.01 2.67 -1.02 2.34 0 2 C0 1.34 0 0.68 0 0 Z " fill="#325538" transform="translate(80,131)"/>
<path d="M0 0 C-0.99 0.495 -0.99 0.495 -2 1 C-2 1.66 -2 2.32 -2 3 C-3.98 3 -5.96 3 -8 3 C-8 2.34 -8 1.68 -8 1 C-5.07175348 0.02391783 -3.04386724 -0.08226668 0 0 Z " fill="#A7B8AB" transform="translate(173,122)"/>
<path d="M0 0 C1.98 0 3.96 0 6 0 C5.67 0.99 5.34 1.98 5 3 C3.35 3 1.7 3 0 3 C0 2.01 0 1.02 0 0 Z " fill="#2A4F31" transform="translate(71,117)"/>
<path d="M0 0 C1.98 0 3.96 0 6 0 C6 0.66 6 1.32 6 2 C5.195625 2.12375 4.39125 2.2475 3.5625 2.375 C2.2940625 2.684375 2.2940625 2.684375 1 3 C0.67 3.66 0.34 4.32 0 5 C0 3.35 0 1.7 0 0 Z " fill="#4D6D54" transform="translate(139,77)"/>
<path d="M0 0 C0.99 0 1.98 0 3 0 C3 1.98 3 3.96 3 6 C2.01 6 1.02 6 0 6 C0 5.34 0 4.68 0 4 C-0.99 3.67 -1.98 3.34 -3 3 C-1.35 3 0.3 3 2 3 C2 2.34 2 1.68 2 1 C1.34 0.67 0.68 0.34 0 0 Z " fill="#E2E7E3" transform="translate(80,65)"/>
</svg>
